<svg xmlns="http://www.w3.org/2000/svg" viewBox="0 0 400 500" fill="none">
  <defs>
    <linearGradient id="bg" x1="0" y1="0" x2="0" y2="1"><stop offset="0%" stop-color="#0a0f2c"/><stop offset="100%" stop-color="#050a18"/></linearGradient>
  </defs>
  <rect width="400" height="500" fill="url(#bg)"/>
  <!-- Central artboard -->
  <rect x="78" y="96" width="244" height="186" rx="10" fill="rgba(255,255,255,0.04)" stroke="rgba(255,255,255,0.12)" stroke-width="1.5"/>
  <!-- Artboard toolbar -->
  <rect x="78" y="96" width="244" height="24" rx="10" fill="rgba(255,255,255,0.06)"/>
  <rect x="78" y="108" width="244" height="12" fill="rgba(255,255,255,0.06)"/>
  <rect x="90" y="103" width="50" height="10" rx="3" fill="rgba(255,255,255,0.15)"/>
  <circle cx="298" cy="108" r="5" fill="rgba(0,212,255,0.3)" stroke="rgba(0,212,255,0.5)"/>
  <circle cx="312" cy="108" r="5" fill="rgba(255,92,26,0.3)" stroke="rgba(255,92,26,0.5)"/>
  <!-- Artboard content -->
  <rect x="94" y="128" width="98" height="64" rx="6" fill="rgba(0,212,255,0.08)" stroke="rgba(0,212,255,0.2)"/>
  <rect x="102" y="136" width="82" height="10" rx="2" fill="rgba(255,255,255,0.08)"/>
  <rect x="102" y="151" width="60" height="7" rx="2" fill="rgba(255,255,255,0.06)"/>
  <rect x="102" y="163" width="70" height="7" rx="2" fill="rgba(255,255,255,0.05)"/>
  <rect x="202" y="128" width="108" height="30" rx="5" fill="rgba(255,255,255,0.05)"/>
  <rect x="212" y="136" width="88" height="7" rx="2" fill="rgba(255,255,255,0.1)"/>
  <rect x="202" y="164" width="108" height="14" rx="5" fill="rgba(124,108,255,0.15)" stroke="rgba(124,108,255,0.2)"/>
  <rect x="94" y="200" width="216" height="7" rx="3" fill="rgba(255,255,255,0.06)"/>
  <rect x="94" y="212" width="170" height="5" rx="2" fill="rgba(255,255,255,0.04)"/>
  <rect x="94" y="222" width="190" height="5" rx="2" fill="rgba(255,255,255,0.04)"/>
  <rect x="94" y="232" width="140" height="5" rx="2" fill="rgba(255,255,255,0.03)"/>
  <rect x="94" y="248" width="100" height="20" rx="10" fill="#FF5C1A" opacity="0.85"/>
  <rect x="202" y="248" width="80" height="20" rx="10" fill="rgba(255,255,255,0.06)" stroke="rgba(255,255,255,0.1)"/>
  <!-- Cursor 1 - orange -->
  <polygon points="148,185 156,207 161,198 170,202 160,180" fill="#FF5C1A" opacity="0.92"/>
  <rect x="154" y="210" width="58" height="18" rx="9" fill="rgba(255,92,26,0.18)" stroke="rgba(255,92,26,0.35)"/>
  <text x="162" y="223" font-family="monospace" font-size="7.5" fill="#FF5C1A">Aditi S.</text>
  <!-- Cursor 2 - cyan -->
  <polygon points="262,148 270,170 275,161 284,165 273,143" fill="#00D4FF" opacity="0.88"/>
  <rect x="268" y="173" width="60" height="18" rx="9" fill="rgba(0,212,255,0.14)" stroke="rgba(0,212,255,0.3)"/>
  <text x="275" y="186" font-family="monospace" font-size="7.5" fill="#00D4FF">Rahul M.</text>
  <!-- Comment bubble 1 (left) -->
  <rect x="22" y="112" width="136" height="64" rx="10" fill="rgba(124,108,255,0.12)" stroke="rgba(124,108,255,0.32)" stroke-width="1.2"/>
  <polygon points="82,176 94,190 104,176" fill="rgba(124,108,255,0.12)" stroke="rgba(124,108,255,0.32)" stroke-width="1.2" stroke-linejoin="round"/>
  <circle cx="38" cy="132" r="8" fill="rgba(124,108,255,0.3)" stroke="rgba(124,108,255,0.55)"/>
  <text x="35" y="136" font-family="monospace" font-size="7.5" fill="#7c6cff" font-weight="bold">P</text>
  <rect x="52" y="126" width="90" height="6" rx="2" fill="rgba(255,255,255,0.16)"/>
  <rect x="30" y="143" width="116" height="5" rx="2" fill="rgba(255,255,255,0.08)"/>
  <rect x="30" y="153" width="98" height="5" rx="2" fill="rgba(255,255,255,0.06)"/>
  <rect x="30" y="163" width="76" height="5" rx="2" fill="rgba(255,255,255,0.05)"/>
  <!-- Comment bubble 2 (top-right) -->
  <rect x="248" y="50" width="128" height="58" rx="10" fill="rgba(0,212,255,0.08)" stroke="rgba(0,212,255,0.26)" stroke-width="1.2"/>
  <polygon points="282,108 294,116 304,108" fill="rgba(0,212,255,0.08)" stroke="rgba(0,212,255,0.26)" stroke-width="1.2" stroke-linejoin="round"/>
  <circle cx="264" cy="68" r="7" fill="rgba(0,212,255,0.22)" stroke="rgba(0,212,255,0.45)"/>
  <text x="261" y="72" font-family="monospace" font-size="7" fill="#00D4FF" font-weight="bold">R</text>
  <rect x="278" y="62" width="84" height="5" rx="2" fill="rgba(255,255,255,0.12)"/>
  <rect x="256" y="75" width="106" height="4" rx="2" fill="rgba(255,255,255,0.07)"/>
  <rect x="256" y="84" width="86" height="4" rx="2" fill="rgba(255,255,255,0.05)"/>
  <rect x="256" y="93" width="66" height="4" rx="2" fill="rgba(255,255,255,0.04)"/>
  <!-- Approval badge -->
  <circle cx="328" cy="298" r="24" fill="rgba(184,255,108,0.1)" stroke="rgba(184,255,108,0.32)" stroke-width="1.5"/>
  <polyline points="318,298 325,306 338,290" stroke="#b8ff6c" stroke-width="2.5" stroke-linecap="round" stroke-linejoin="round"/>
  <text x="306" y="332" font-family="monospace" font-size="7" fill="rgba(184,255,108,0.65)" letter-spacing="0.08em">APPROVED</text>
  <!-- Version history -->
  <rect x="38" y="318" width="240" height="52" rx="10" fill="rgba(255,255,255,0.025)" stroke="rgba(255,255,255,0.07)"/>
  <text x="54" y="336" font-family="monospace" font-size="7" fill="rgba(255,255,255,0.3)" letter-spacing="0.12em">VERSION HISTORY</text>
  <circle cx="56" cy="353" r="5" fill="#b8ff6c" opacity="0.85"/>
  <text x="66" y="357" font-family="monospace" font-size="7.5" fill="rgba(255,255,255,0.65)">v3.2 - Final approved</text>
  <circle cx="56" cy="366" r="5" fill="rgba(255,255,255,0.2)"/>
  <text x="66" y="370" font-family="monospace" font-size="7" fill="rgba(255,255,255,0.32)">v3.1 - Client revisions</text>
  <!-- Activity feed -->
  <rect x="38" y="382" width="324" height="92" rx="12" fill="rgba(255,255,255,0.02)" stroke="rgba(255,255,255,0.06)"/>
  <text x="54" y="400" font-family="monospace" font-size="7" fill="rgba(255,255,255,0.3)" letter-spacing="0.12em">ACTIVITY</text>
  <circle cx="54" cy="416" r="4" fill="#FF5C1A" opacity="0.85"/>
  <rect x="64" y="412" width="84" height="5" rx="2" fill="rgba(255,255,255,0.12)"/>
  <text x="64" y="428" font-family="monospace" font-size="6.5" fill="rgba(255,255,255,0.3)">Left a comment on Hero section</text>
  <circle cx="54" cy="440" r="4" fill="#00D4FF" opacity="0.75"/>
  <rect x="64" y="436" width="72" height="5" rx="2" fill="rgba(255,255,255,0.1)"/>
  <text x="64" y="452" font-family="monospace" font-size="6.5" fill="rgba(255,255,255,0.3)">Approved colour palette v3</text>
  <circle cx="54" cy="462" r="4" fill="#7c6cff" opacity="0.72"/>
  <rect x="64" y="458" width="92" height="5" rx="2" fill="rgba(255,255,255,0.08)"/>
  <text x="64" y="474" font-family="monospace" font-size="6.5" fill="rgba(255,255,255,0.25)">Uploaded new brand assets</text>
  <!-- Label -->
  <rect x="38" y="484" width="114" height="20" rx="10" fill="rgba(0,212,255,0.12)" stroke="rgba(0,212,255,0.28)"/>
  <text x="52" y="498" font-family="monospace" font-size="8" fill="#00D4FF" letter-spacing="0.1em">COLLAB REVIEW</text>
</svg>
