<svg xmlns="http://www.w3.org/2000/svg" viewBox="0 0 400 500" fill="none">
  <defs>
    <linearGradient id="bg" x1="0" y1="0" x2="0" y2="1"><stop offset="0%" stop-color="#0a0f2c"/><stop offset="100%" stop-color="#050a18"/></linearGradient>
    <linearGradient id="screen" x1="0" y1="0" x2="1" y2="1"><stop offset="0%" stop-color="#0d1535"/><stop offset="100%" stop-color="#070d20"/></linearGradient>
    <linearGradient id="glow1" x1="0" y1="0" x2="1" y2="1"><stop offset="0%" stop-color="#FF5C1A" stop-opacity="0.5"/><stop offset="100%" stop-color="#FF5C1A" stop-opacity="0"/></linearGradient>
    <linearGradient id="glow2" x1="1" y1="0" x2="0" y2="1"><stop offset="0%" stop-color="#00D4FF" stop-opacity="0.4"/><stop offset="100%" stop-color="#00D4FF" stop-opacity="0"/></linearGradient>
  </defs>
  <rect width="400" height="500" fill="url(#bg)"/>
  <g stroke="rgba(255,255,255,0.03)" stroke-width="1">
    <line x1="0" y1="50" x2="400" y2="50"/><line x1="0" y1="100" x2="400" y2="100"/><line x1="0" y1="150" x2="400" y2="150"/>
    <line x1="0" y1="200" x2="400" y2="200"/><line x1="0" y1="250" x2="400" y2="250"/><line x1="0" y1="300" x2="400" y2="300"/>
    <line x1="0" y1="350" x2="400" y2="350"/><line x1="0" y1="400" x2="400" y2="400"/><line x1="0" y1="450" x2="400" y2="450"/>
    <line x1="50" y1="0" x2="50" y2="500"/><line x1="100" y1="0" x2="100" y2="500"/><line x1="150" y1="0" x2="150" y2="500"/>
    <line x1="200" y1="0" x2="200" y2="500"/><line x1="250" y1="0" x2="250" y2="500"/><line x1="300" y1="0" x2="300" y2="500"/>
    <line x1="350" y1="0" x2="350" y2="500"/>
  </g>
  <!-- Laptop screen -->
  <rect x="55" y="55" width="290" height="185" rx="10" fill="url(#screen)" stroke="rgba(255,255,255,0.12)" stroke-width="1.5"/>
  <circle cx="90" cy="80" r="60" fill="url(#glow1)" opacity="0.6"/>
  <circle cx="330" cy="70" r="50" fill="url(#glow2)" opacity="0.5"/>
  <circle cx="200" cy="63" r="3" fill="rgba(255,255,255,0.2)"/>
  <!-- Browser chrome -->
  <rect x="55" y="55" width="290" height="22" rx="10" fill="rgba(255,255,255,0.06)"/>
  <rect x="55" y="66" width="290" height="11" fill="rgba(255,255,255,0.06)"/>
  <circle cx="75" cy="66" r="4" fill="#FF5C1A" opacity="0.7"/>
  <circle cx="91" cy="66" r="4" fill="#FFD600" opacity="0.5"/>
  <circle cx="107" cy="66" r="4" fill="#00D4FF" opacity="0.5"/>
  <rect x="130" y="62" width="150" height="8" rx="4" fill="rgba(255,255,255,0.08)"/>
  <!-- Nav bar -->
  <rect x="70" y="84" width="260" height="18" rx="3" fill="rgba(255,255,255,0.04)"/>
  <rect x="78" y="89" width="30" height="8" rx="2" fill="rgba(255,255,255,0.15)"/>
  <rect x="130" y="89" width="22" height="6" rx="2" fill="rgba(255,255,255,0.07)"/>
  <rect x="160" y="89" width="22" height="6" rx="2" fill="rgba(255,255,255,0.07)"/>
  <rect x="190" y="89" width="22" height="6" rx="2" fill="rgba(255,255,255,0.07)"/>
  <rect x="285" y="87" width="38" height="10" rx="5" fill="#FF5C1A" opacity="0.9"/>
  <!-- Hero section mockup -->
  <rect x="70" y="110" width="155" height="90" rx="4" fill="rgba(255,255,255,0.025)"/>
  <rect x="82" y="122" width="100" height="10" rx="3" fill="rgba(255,255,255,0.18)"/>
  <rect x="82" y="138" width="130" height="7" rx="2" fill="rgba(255,255,255,0.09)"/>
  <rect x="82" y="150" width="110" height="7" rx="2" fill="rgba(255,255,255,0.07)"/>
  <rect x="82" y="165" width="52" height="16" rx="8" fill="#FF5C1A" opacity="0.85"/>
  <rect x="142" y="165" width="52" height="16" rx="8" fill="rgba(255,255,255,0.07)" stroke="rgba(255,255,255,0.12)"/>
  <!-- Hero image placeholder -->
  <rect x="232" y="110" width="90" height="85" rx="8" fill="rgba(0,212,255,0.08)" stroke="rgba(0,212,255,0.2)"/>
  <circle cx="277" cy="152" r="22" fill="rgba(0,212,255,0.12)" stroke="rgba(0,212,255,0.25)"/>
  <line x1="265" y1="152" x2="277" y2="140" stroke="rgba(0,212,255,0.4)" stroke-width="1.5"/>
  <line x1="277" y1="140" x2="289" y2="152" stroke="rgba(0,212,255,0.4)" stroke-width="1.5"/>
  <!-- Laptop base -->
  <rect x="40" y="240" width="320" height="12" rx="4" fill="rgba(255,255,255,0.06)" stroke="rgba(255,255,255,0.08)"/>
  <rect x="120" y="252" width="160" height="5" rx="2" fill="rgba(255,255,255,0.04)"/>
  <!-- Colour system panel -->
  <rect x="40" y="274" width="320" height="66" rx="12" fill="rgba(255,255,255,0.03)" stroke="rgba(255,255,255,0.08)"/>
  <text x="56" y="294" font-family="monospace" font-size="8" fill="rgba(255,255,255,0.4)" letter-spacing="0.1em">COLOUR SYSTEM</text>
  <circle cx="62" cy="318" r="14" fill="#FF5C1A"/>
  <circle cx="96" cy="318" r="14" fill="#00D4FF"/>
  <circle cx="130" cy="318" r="14" fill="#7c6cff"/>
  <circle cx="164" cy="318" r="14" fill="#b8ff6c"/>
  <circle cx="198" cy="318" r="14" fill="#050A18" stroke="rgba(255,255,255,0.2)"/>
  <rect x="224" y="308" width="50" height="8" rx="3" fill="rgba(255,255,255,0.08)"/>
  <rect x="224" y="321" width="38" height="6" rx="3" fill="rgba(255,255,255,0.05)"/>
  <!-- Typography panel -->
  <rect x="40" y="356" width="148" height="102" rx="12" fill="rgba(124,108,255,0.07)" stroke="rgba(124,108,255,0.2)"/>
  <text x="54" y="375" font-family="serif" font-size="18" fill="rgba(255,255,255,0.85)" font-weight="bold">Aa</text>
  <text x="54" y="391" font-family="monospace" font-size="7" fill="rgba(255,255,255,0.3)" letter-spacing="0.12em">HEADING / SERIF</text>
  <rect x="54" y="400" width="80" height="6" rx="2" fill="rgba(255,255,255,0.08)"/>
  <rect x="54" y="411" width="110" height="5" rx="2" fill="rgba(255,255,255,0.05)"/>
  <rect x="54" y="421" width="95" height="5" rx="2" fill="rgba(255,255,255,0.05)"/>
  <rect x="54" y="431" width="70" height="5" rx="2" fill="rgba(255,255,255,0.04)"/>
  <rect x="54" y="441" width="60" height="5" rx="2" fill="rgba(255,255,255,0.04)"/>
  <!-- Grid system panel -->
  <rect x="204" y="356" width="156" height="102" rx="12" fill="rgba(0,212,255,0.05)" stroke="rgba(0,212,255,0.18)"/>
  <text x="218" y="375" font-family="monospace" font-size="7" fill="rgba(0,212,255,0.5)" letter-spacing="0.12em">GRID / SPACING</text>
  <g stroke="rgba(0,212,255,0.15)" stroke-width="0.8" stroke-dasharray="2,2">
    <line x1="218" y1="383" x2="348" y2="383"/><line x1="218" y1="398" x2="348" y2="398"/>
    <line x1="218" y1="413" x2="348" y2="413"/><line x1="218" y1="428" x2="348" y2="428"/>
    <line x1="232" y1="383" x2="232" y2="443"/><line x1="262" y1="383" x2="262" y2="443"/>
    <line x1="292" y1="383" x2="292" y2="443"/><line x1="322" y1="383" x2="322" y2="443"/>
  </g>
  <rect x="232" y="398" width="30" height="30" rx="2" fill="rgba(0,212,255,0.12)"/>
  <rect x="268" y="388" width="54" height="15" rx="2" fill="rgba(255,92,26,0.15)"/>
  <!-- Label -->
  <rect x="40" y="470" width="120" height="20" rx="10" fill="rgba(255,92,26,0.15)" stroke="rgba(255,92,26,0.3)"/>
  <text x="56" y="484" font-family="monospace" font-size="8" fill="#FF5C1A" letter-spacing="0.1em">STUDIO DESIGN</text>
</svg>
