<svg xmlns="http://www.w3.org/2000/svg" viewBox="0 0 600 340" fill="none">
  <defs>
    <linearGradient id="bg" x1="0" y1="0" x2="1" y2="1"><stop offset="0%" stop-color="#0f1629"/><stop offset="100%" stop-color="#070d1a"/></linearGradient>
    <linearGradient id="sidebar" x1="0" y1="0" x2="1" y2="0"><stop offset="0%" stop-color="#111827"/><stop offset="100%" stop-color="#0d1420"/></linearGradient>
    <linearGradient id="bar1" x1="0" y1="1" x2="0" y2="0"><stop offset="0%" stop-color="#00D4FF"/><stop offset="100%" stop-color="#0090ff"/></linearGradient>
    <linearGradient id="bar2" x1="0" y1="1" x2="0" y2="0"><stop offset="0%" stop-color="#7c6cff"/><stop offset="100%" stop-color="#a78bff"/></linearGradient>
    <linearGradient id="bar3" x1="0" y1="1" x2="0" y2="0"><stop offset="0%" stop-color="#FF5C1A"/><stop offset="100%" stop-color="#ff8c42"/></linearGradient>
    <linearGradient id="card1" x1="0" y1="0" x2="1" y2="1"><stop offset="0%" stop-color="#1a1f3a"/><stop offset="100%" stop-color="#111827"/></linearGradient>
  </defs>
  <rect width="600" height="340" fill="url(#bg)"/>
  <!-- Sidebar -->
  <rect x="0" y="0" width="148" height="340" fill="url(#sidebar)"/>
  <rect x="0" y="0" width="148" height="340" fill="rgba(255,255,255,0.02)"/>
  <!-- Logo area -->
  <rect x="16" y="16" width="116" height="38" rx="8" fill="rgba(124,108,255,0.25)" stroke="rgba(124,108,255,0.5)" stroke-width="1"/>
  <circle cx="32" cy="35" r="8" fill="#7c6cff"/>
  <rect x="46" y="29" width="72" height="8" rx="3" fill="white" opacity="0.9"/>
  <rect x="46" y="40" width="50" height="5" rx="2" fill="rgba(255,255,255,0.4)"/>
  <!-- Nav items -->
  <rect x="12" y="66" width="124" height="30" rx="8" fill="rgba(0,212,255,0.15)" stroke="rgba(0,212,255,0.3)" stroke-width="1"/>
  <rect x="28" y="78" width="8" height="8" rx="2" fill="#00D4FF"/>
  <rect x="42" y="79" width="60" height="6" rx="2" fill="white" opacity="0.85"/>
  <rect x="12" y="102" width="124" height="28" rx="7" fill="rgba(255,255,255,0.04)"/>
  <rect x="28" y="113" width="6" height="6" rx="1" fill="rgba(255,255,255,0.3)"/>
  <rect x="40" y="114" width="50" height="5" rx="2" fill="rgba(255,255,255,0.4)"/>
  <rect x="12" y="136" width="124" height="28" rx="7" fill="rgba(255,255,255,0.04)"/>
  <rect x="28" y="147" width="6" height="6" rx="1" fill="rgba(255,255,255,0.3)"/>
  <rect x="40" y="148" width="44" height="5" rx="2" fill="rgba(255,255,255,0.4)"/>
  <rect x="12" y="170" width="124" height="28" rx="7" fill="rgba(255,255,255,0.04)"/>
  <rect x="28" y="181" width="6" height="6" rx="1" fill="rgba(255,255,255,0.3)"/>
  <rect x="40" y="182" width="56" height="5" rx="2" fill="rgba(255,255,255,0.4)"/>
  <rect x="12" y="204" width="124" height="28" rx="7" fill="rgba(255,255,255,0.04)"/>
  <rect x="28" y="215" width="6" height="6" rx="1" fill="rgba(255,255,255,0.3)"/>
  <rect x="40" y="216" width="40" height="5" rx="2" fill="rgba(255,255,255,0.4)"/>
  <!-- AI badge -->
  <rect x="12" y="290" width="124" height="32" rx="16" fill="rgba(184,255,108,0.15)" stroke="rgba(184,255,108,0.4)" stroke-width="1"/>
  <rect x="24" y="302" width="100" height="8" rx="3" fill="#b8ff6c" opacity="0.8"/>
  <!-- Main content -->
  <!-- Top stat cards -->
  <rect x="162" y="14" width="94" height="62" rx="10" fill="url(#card1)" stroke="rgba(0,212,255,0.2)" stroke-width="1"/>
  <rect x="174" y="24" width="50" height="20" rx="5" fill="rgba(0,212,255,0.2)"/>
  <rect x="174" y="24" width="50" height="20" rx="5" fill="url(#bar1)" opacity="0.3"/>
  <rect x="174" y="26" width="32" height="14" rx="3" fill="#00D4FF" opacity="0.15"/>
  <rect x="178" y="30" width="24" height="8" rx="2" fill="#00D4FF"/>
  <rect x="174" y="50" width="64" height="6" rx="2" fill="rgba(255,255,255,0.5)"/>
  <rect x="174" y="60" width="44" height="5" rx="2" fill="rgba(255,255,255,0.25)"/>
  <rect x="264" y="14" width="94" height="62" rx="10" fill="url(#card1)" stroke="rgba(255,92,26,0.2)" stroke-width="1"/>
  <rect x="276" y="26" width="24" height="8" rx="2" fill="#FF5C1A"/>
  <rect x="276" y="50" width="64" height="6" rx="2" fill="rgba(255,255,255,0.5)"/>
  <rect x="276" y="60" width="44" height="5" rx="2" fill="rgba(255,255,255,0.25)"/>
  <rect x="366" y="14" width="94" height="62" rx="10" fill="url(#card1)" stroke="rgba(124,108,255,0.2)" stroke-width="1"/>
  <rect x="378" y="26" width="24" height="8" rx="2" fill="#7c6cff"/>
  <rect x="378" y="50" width="64" height="6" rx="2" fill="rgba(255,255,255,0.5)"/>
  <rect x="378" y="60" width="44" height="5" rx="2" fill="rgba(255,255,255,0.25)"/>
  <rect x="468" y="14" width="120" height="62" rx="10" fill="url(#card1)" stroke="rgba(184,255,108,0.2)" stroke-width="1"/>
  <rect x="480" y="26" width="28" height="8" rx="2" fill="#b8ff6c"/>
  <rect x="480" y="50" width="80" height="6" rx="2" fill="rgba(255,255,255,0.5)"/>
  <rect x="480" y="60" width="56" height="5" rx="2" fill="rgba(255,255,255,0.25)"/>
  <!-- Chart area -->
  <rect x="162" y="88" width="290" height="152" rx="12" fill="rgba(255,255,255,0.04)" stroke="rgba(255,255,255,0.08)" stroke-width="1"/>
  <rect x="176" y="100" width="120" height="10" rx="3" fill="rgba(255,255,255,0.7)"/>
  <rect x="176" y="114" width="80" height="6" rx="2" fill="rgba(255,255,255,0.25)"/>
  <!-- Chart grid lines -->
  <g stroke="rgba(255,255,255,0.06)" stroke-width="1">
    <line x1="176" y1="222" x2="438" y2="222"/>
    <line x1="176" y1="202" x2="438" y2="202"/>
    <line x1="176" y1="182" x2="438" y2="182"/>
    <line x1="176" y1="162" x2="438" y2="162"/>
    <line x1="176" y1="142" x2="438" y2="142"/>
  </g>
  <!-- Chart bars - filled and colorful -->
  <rect x="186" y="192" width="26" height="30" rx="4" fill="url(#bar1)" opacity="0.7"/>
  <rect x="220" y="178" width="26" height="44" rx="4" fill="url(#bar1)" opacity="0.85"/>
  <rect x="254" y="162" width="26" height="60" rx="4" fill="url(#bar1)"/>
  <rect x="288" y="170" width="26" height="52" rx="4" fill="url(#bar2)" opacity="0.85"/>
  <rect x="322" y="150" width="26" height="72" rx="4" fill="url(#bar2)"/>
  <rect x="356" y="155" width="26" height="67" rx="4" fill="url(#bar3)" opacity="0.9"/>
  <rect x="390" y="138" width="26" height="84" rx="4" fill="url(#bar3)"/>
  <!-- Trend line -->
  <polyline points="199,207 233,193 267,177 301,185 335,165 369,170 403,153" stroke="#b8ff6c" stroke-width="2" fill="none" stroke-linecap="round" stroke-linejoin="round"/>
  <circle cx="403" cy="153" r="4" fill="#b8ff6c"/>
  <!-- Right panel - module cards -->
  <rect x="462" y="88" width="126" height="70" rx="10" fill="rgba(124,108,255,0.12)" stroke="rgba(124,108,255,0.3)" stroke-width="1"/>
  <rect x="474" y="100" width="70" height="8" rx="3" fill="white" opacity="0.8"/>
  <rect x="474" y="113" width="100" height="5" rx="2" fill="rgba(255,255,255,0.35)"/>
  <rect x="474" y="122" width="80" height="5" rx="2" fill="rgba(255,255,255,0.25)"/>
  <rect x="474" y="136" width="56" height="14" rx="7" fill="rgba(184,255,108,0.25)" stroke="rgba(184,255,108,0.5)" stroke-width="1"/>
  <rect x="484" y="141" width="36" height="5" rx="2" fill="#b8ff6c" opacity="0.8"/>
  <rect x="462" y="166" width="126" height="70" rx="10" fill="rgba(0,212,255,0.1)" stroke="rgba(0,212,255,0.25)" stroke-width="1"/>
  <rect x="474" y="178" width="70" height="8" rx="3" fill="white" opacity="0.8"/>
  <rect x="474" y="191" width="100" height="5" rx="2" fill="rgba(255,255,255,0.35)"/>
  <rect x="474" y="200" width="80" height="5" rx="2" fill="rgba(255,255,255,0.25)"/>
  <rect x="474" y="214" width="56" height="14" rx="7" fill="rgba(0,212,255,0.2)" stroke="rgba(0,212,255,0.4)" stroke-width="1"/>
  <rect x="484" y="219" width="36" height="5" rx="2" fill="#00D4FF" opacity="0.8"/>
  <!-- Bottom row -->
  <rect x="162" y="252" width="188" height="72" rx="10" fill="rgba(255,255,255,0.04)" stroke="rgba(255,255,255,0.08)" stroke-width="1"/>
  <rect x="176" y="264" width="80" height="8" rx="3" fill="rgba(255,255,255,0.7)"/>
  <rect x="176" y="277" width="150" height="5" rx="2" fill="rgba(255,255,255,0.25)"/>
  <rect x="176" y="287" width="120" height="5" rx="2" fill="rgba(255,255,255,0.18)"/>
  <rect x="176" y="302" width="70" height="14" rx="7" fill="rgba(255,92,26,0.25)" stroke="rgba(255,92,26,0.4)" stroke-width="1"/>
  <rect x="362" y="252" width="226" height="72" rx="10" fill="rgba(255,255,255,0.04)" stroke="rgba(255,255,255,0.08)" stroke-width="1"/>
  <rect x="376" y="264" width="80" height="8" rx="3" fill="rgba(255,255,255,0.7)"/>
  <rect x="376" y="277" width="180" height="5" rx="2" fill="rgba(255,255,255,0.25)"/>
  <rect x="376" y="287" width="150" height="5" rx="2" fill="rgba(255,255,255,0.18)"/>
  <rect x="376" y="302" width="70" height="14" rx="7" fill="rgba(124,108,255,0.25)" stroke="rgba(124,108,255,0.4)" stroke-width="1"/>
</svg>
