<svg xmlns="http://www.w3.org/2000/svg" viewBox="0 0 600 340" fill="none">
  <defs>
    <linearGradient id="bg" x1="0" y1="0" x2="1" y2="1"><stop offset="0%" stop-color="#0d1535"/><stop offset="100%" stop-color="#050a18"/></linearGradient>
    <linearGradient id="purpleglow" x1="0" y1="0" x2="1" y2="1"><stop offset="0%" stop-color="#7c6cff" stop-opacity="0.3"/><stop offset="100%" stop-color="#7c6cff" stop-opacity="0"/></linearGradient>
  </defs>
  <rect width="600" height="340" fill="url(#bg)"/>
  <circle cx="480" cy="60" r="120" fill="url(#purpleglow)"/>
  <!-- Sidebar -->
  <rect x="0" y="0" width="140" height="340" fill="rgba(255,255,255,0.03)" stroke="rgba(255,255,255,0.06)" stroke-width="1"/>
  <rect x="16" y="20" width="108" height="32" rx="8" fill="rgba(124,108,255,0.2)" stroke="rgba(124,108,255,0.4)"/>
  <rect x="24" y="29" width="50" height="7" rx="2" fill="rgba(255,255,255,0.7)"/>
  <rect x="24" y="40" width="36" height="5" rx="2" fill="rgba(255,255,255,0.3)"/>
  <!-- Nav items -->
  <rect x="16" y="64" width="108" height="26" rx="6" fill="rgba(255,255,255,0.04)"/>
  <rect x="24" y="72" width="40" height="5" rx="2" fill="rgba(255,255,255,0.2)"/>
  <rect x="16" y="96" width="108" height="26" rx="6" fill="rgba(124,108,255,0.12)"/>
  <rect x="24" y="104" width="50" height="5" rx="2" fill="rgba(124,108,255,0.6)"/>
  <rect x="16" y="128" width="108" height="26" rx="6" fill="rgba(255,255,255,0.04)"/>
  <rect x="24" y="136" width="44" height="5" rx="2" fill="rgba(255,255,255,0.2)"/>
  <rect x="16" y="160" width="108" height="26" rx="6" fill="rgba(255,255,255,0.04)"/>
  <rect x="24" y="168" width="36" height="5" rx="2" fill="rgba(255,255,255,0.2)"/>
  <rect x="16" y="192" width="108" height="26" rx="6" fill="rgba(255,255,255,0.04)"/>
  <rect x="24" y="200" width="48" height="5" rx="2" fill="rgba(255,255,255,0.2)"/>
  <!-- AI badge -->
  <rect x="16" y="280" width="108" height="28" rx="14" fill="rgba(184,255,108,0.12)" stroke="rgba(184,255,108,0.3)"/>
  <rect x="28" y="290" width="84" height="6" rx="2" fill="rgba(184,255,108,0.5)"/>
  <!-- Main content area -->
  <!-- Top stats -->
  <rect x="156" y="16" width="100" height="60" rx="10" fill="rgba(255,255,255,0.04)" stroke="rgba(255,255,255,0.08)"/>
  <rect x="168" y="28" width="40" height="14" rx="3" fill="rgba(0,212,255,0.2)"/>
  <rect x="168" y="46" width="60" height="6" rx="2" fill="rgba(255,255,255,0.12)"/>
  <rect x="168" y="56" width="44" height="5" rx="2" fill="rgba(255,255,255,0.06)"/>
  <rect x="268" y="16" width="100" height="60" rx="10" fill="rgba(255,255,255,0.04)" stroke="rgba(255,255,255,0.08)"/>
  <rect x="280" y="28" width="40" height="14" rx="3" fill="rgba(255,92,26,0.25)"/>
  <rect x="280" y="46" width="60" height="6" rx="2" fill="rgba(255,255,255,0.12)"/>
  <rect x="280" y="56" width="44" height="5" rx="2" fill="rgba(255,255,255,0.06)"/>
  <rect x="380" y="16" width="100" height="60" rx="10" fill="rgba(255,255,255,0.04)" stroke="rgba(255,255,255,0.08)"/>
  <rect x="392" y="28" width="40" height="14" rx="3" fill="rgba(124,108,255,0.25)"/>
  <rect x="392" y="46" width="60" height="6" rx="2" fill="rgba(255,255,255,0.12)"/>
  <rect x="392" y="56" width="44" height="5" rx="2" fill="rgba(255,255,255,0.06)"/>
  <rect x="492" y="16" width="96" height="60" rx="10" fill="rgba(255,255,255,0.04)" stroke="rgba(255,255,255,0.08)"/>
  <rect x="504" y="28" width="40" height="14" rx="3" fill="rgba(184,255,108,0.25)"/>
  <rect x="504" y="46" width="60" height="6" rx="2" fill="rgba(255,255,255,0.12)"/>
  <rect x="504" y="56" width="44" height="5" rx="2" fill="rgba(255,255,255,0.06)"/>
  <!-- Chart area -->
  <rect x="156" y="90" width="284" height="140" rx="10" fill="rgba(255,255,255,0.025)" stroke="rgba(255,255,255,0.07)"/>
  <rect x="168" y="102" width="80" height="8" rx="2" fill="rgba(255,255,255,0.15)"/>
  <!-- Bar chart -->
  <rect x="172" y="190" width="22" height="26" rx="3" fill="rgba(0,212,255,0.4)"/>
  <rect x="202" y="175" width="22" height="41" rx="3" fill="rgba(0,212,255,0.55)"/>
  <rect x="232" y="160" width="22" height="56" rx="3" fill="rgba(0,212,255,0.7)"/>
  <rect x="262" y="170" width="22" height="46" rx="3" fill="rgba(124,108,255,0.55)"/>
  <rect x="292" y="150" width="22" height="66" rx="3" fill="rgba(124,108,255,0.75)"/>
  <rect x="322" y="155" width="22" height="61" rx="3" fill="rgba(255,92,26,0.65)"/>
  <rect x="352" y="140" width="22" height="76" rx="3" fill="rgba(255,92,26,0.85)"/>
  <!-- Grid lines -->
  <g stroke="rgba(255,255,255,0.05)" stroke-width="1">
    <line x1="168" y1="216" x2="424" y2="216"/>
    <line x1="168" y1="196" x2="424" y2="196"/>
    <line x1="168" y1="176" x2="424" y2="176"/>
    <line x1="168" y1="156" x2="424" y2="156"/>
  </g>
  <!-- Module cards -->
  <rect x="452" y="90" width="136" height="64" rx="10" fill="rgba(124,108,255,0.08)" stroke="rgba(124,108,255,0.22)"/>
  <rect x="464" y="102" width="60" height="7" rx="2" fill="rgba(255,255,255,0.5)"/>
  <rect x="464" y="114" width="100" height="5" rx="2" fill="rgba(255,255,255,0.15)"/>
  <rect x="464" y="123" width="80" height="5" rx="2" fill="rgba(255,255,255,0.1)"/>
  <rect x="464" y="136" width="50" height="12" rx="6" fill="rgba(184,255,108,0.2)" stroke="rgba(184,255,108,0.4)"/>
  <rect x="452" y="164" width="136" height="64" rx="10" fill="rgba(0,212,255,0.07)" stroke="rgba(0,212,255,0.2)"/>
  <rect x="464" y="176" width="60" height="7" rx="2" fill="rgba(255,255,255,0.5)"/>
  <rect x="464" y="188" width="100" height="5" rx="2" fill="rgba(255,255,255,0.15)"/>
  <rect x="464" y="197" width="80" height="5" rx="2" fill="rgba(255,255,255,0.1)"/>
  <rect x="464" y="210" width="50" height="12" rx="6" fill="rgba(0,212,255,0.18)" stroke="rgba(0,212,255,0.3)"/>
  <!-- Bottom module grid -->
  <rect x="156" y="244" width="180" height="56" rx="10" fill="rgba(255,255,255,0.025)" stroke="rgba(255,255,255,0.07)"/>
  <rect x="168" y="256" width="70" height="7" rx="2" fill="rgba(255,255,255,0.15)"/>
  <rect x="168" y="268" width="120" height="5" rx="2" fill="rgba(255,255,255,0.08)"/>
  <rect x="168" y="278" width="100" height="5" rx="2" fill="rgba(255,255,255,0.06)"/>
  <rect x="348" y="244" width="240" height="56" rx="10" fill="rgba(255,255,255,0.025)" stroke="rgba(255,255,255,0.07)"/>
  <rect x="360" y="256" width="70" height="7" rx="2" fill="rgba(255,255,255,0.15)"/>
  <rect x="360" y="268" width="150" height="5" rx="2" fill="rgba(255,255,255,0.08)"/>
  <rect x="360" y="278" width="120" height="5" rx="2" fill="rgba(255,255,255,0.06)"/>
  <!-- AI badge top-right -->
  <rect x="488" y="308" width="100" height="24" rx="12" fill="rgba(184,255,108,0.15)" stroke="rgba(184,255,108,0.35)"/>
  <text x="506" y="324" font-family="monospace" font-size="8" fill="#b8ff6c" letter-spacing="0.1em">18 AI MODULES</text>
</svg>
