<svg xmlns="http://www.w3.org/2000/svg" viewBox="0 0 600 340" fill="none">
  <defs>
    <linearGradient id="bg" x1="0" y1="0" x2="1" y2="1"><stop offset="0%" stop-color="#0f1629"/><stop offset="100%" stop-color="#07111f"/></linearGradient>
    <linearGradient id="p1" x1="0" y1="0" x2="0" y2="1"><stop offset="0%" stop-color="#1a2540"/><stop offset="100%" stop-color="#111827"/></linearGradient>
    <linearGradient id="p2" x1="0" y1="0" x2="0" y2="1"><stop offset="0%" stop-color="#1e1a30"/><stop offset="100%" stop-color="#111827"/></linearGradient>
    <linearGradient id="p3" x1="0" y1="0" x2="0" y2="1"><stop offset="0%" stop-color="#1a2818"/><stop offset="100%" stop-color="#111827"/></linearGradient>
    <linearGradient id="p4" x1="0" y1="0" x2="0" y2="1"><stop offset="0%" stop-color="#2a1a10"/><stop offset="100%" stop-color="#111827"/></linearGradient>
    <linearGradient id="p5" x1="0" y1="0" x2="0" y2="1"><stop offset="0%" stop-color="#1a1e30"/><stop offset="100%" stop-color="#111827"/></linearGradient>
    <linearGradient id="p6" x1="0" y1="0" x2="0" y2="1"><stop offset="0%" stop-color="#1e2818"/><stop offset="100%" stop-color="#111827"/></linearGradient>
  </defs>
  <rect width="600" height="340" fill="url(#bg)"/>
  <!-- Top filter bar -->
  <rect x="16" y="12" width="568" height="36" rx="18" fill="rgba(255,255,255,0.04)" stroke="rgba(255,255,255,0.08)" stroke-width="1"/>
  <rect x="28" y="22" width="60" height="16" rx="8" fill="#FF5C1A"/>
  <rect x="34" y="27" width="48" height="6" rx="2" fill="white" opacity="0.9"/>
  <rect x="98" y="22" width="72" height="16" rx="8" fill="rgba(255,255,255,0.08)"/>
  <rect x="106" y="27" width="56" height="6" rx="2" fill="rgba(255,255,255,0.5)"/>
  <rect x="180" y="22" width="56" height="16" rx="8" fill="rgba(255,255,255,0.08)"/>
  <rect x="188" y="27" width="40" height="6" rx="2" fill="rgba(255,255,255,0.5)"/>
  <rect x="246" y="22" width="44" height="16" rx="8" fill="rgba(255,255,255,0.08)"/>
  <rect x="254" y="27" width="28" height="6" rx="2" fill="rgba(255,255,255,0.5)"/>
  <!-- Product card 1 -->
  <rect x="16" y="58" width="176" height="130" rx="12" fill="url(#p1)" stroke="rgba(0,212,255,0.25)" stroke-width="1"/>
  <rect x="16" y="58" width="176" height="72" rx="12" fill="rgba(0,212,255,0.08)"/>
  <rect x="16" y="118" width="176" height="12" fill="rgba(0,212,255,0.08)"/>
  <circle cx="104" cy="94" r="28" fill="rgba(0,212,255,0.15)" stroke="rgba(0,212,255,0.35)" stroke-width="1.5"/>
  <circle cx="104" cy="94" r="16" fill="rgba(0,212,255,0.2)" stroke="rgba(0,212,255,0.5)" stroke-width="1"/>
  <circle cx="104" cy="94" r="7" fill="#00D4FF"/>
  <rect x="28" y="142" width="100" height="9" rx="3" fill="white" opacity="0.85"/>
  <rect x="28" y="156" width="68" height="7" rx="2" fill="#00D4FF" opacity="0.8"/>
  <rect x="140" y="154" width="38" height="20" rx="4" fill="rgba(0,212,255,0.2)" stroke="rgba(0,212,255,0.4)" stroke-width="1"/>
  <rect x="145" y="161" width="28" height="5" rx="2" fill="#00D4FF" opacity="0.7"/>
  <rect x="28" y="170" width="32" height="16" rx="8" fill="#FF5C1A"/>
  <rect x="32" y="175" width="24" height="5" rx="2" fill="white" opacity="0.9"/>
  <!-- NEW badge -->
  <rect x="20" y="62" width="36" height="16" rx="8" fill="#FF5C1A"/>
  <rect x="25" y="67" width="26" height="6" rx="2" fill="white" opacity="0.9"/>
  <!-- Product card 2 -->
  <rect x="204" y="58" width="176" height="130" rx="12" fill="url(#p2)" stroke="rgba(124,108,255,0.25)" stroke-width="1"/>
  <rect x="204" y="58" width="176" height="72" rx="12" fill="rgba(124,108,255,0.08)"/>
  <rect x="204" y="118" width="176" height="12" fill="rgba(124,108,255,0.08)"/>
  <circle cx="292" cy="94" r="28" fill="rgba(124,108,255,0.15)" stroke="rgba(124,108,255,0.35)" stroke-width="1.5"/>
  <circle cx="292" cy="94" r="16" fill="rgba(124,108,255,0.2)" stroke="rgba(124,108,255,0.5)" stroke-width="1"/>
  <circle cx="292" cy="94" r="7" fill="#7c6cff"/>
  <rect x="216" y="142" width="100" height="9" rx="3" fill="white" opacity="0.85"/>
  <rect x="216" y="156" width="68" height="7" rx="2" fill="#7c6cff" opacity="0.8"/>
  <rect x="216" y="170" width="32" height="16" rx="8" fill="#FF5C1A"/>
  <!-- Product card 3 -->
  <rect x="392" y="58" width="192" height="130" rx="12" fill="url(#p3)" stroke="rgba(184,255,108,0.2)" stroke-width="1"/>
  <rect x="392" y="58" width="192" height="72" rx="12" fill="rgba(184,255,108,0.06)"/>
  <rect x="392" y="118" width="192" height="12" fill="rgba(184,255,108,0.06)"/>
  <circle cx="488" cy="94" r="28" fill="rgba(184,255,108,0.1)" stroke="rgba(184,255,108,0.3)" stroke-width="1.5"/>
  <circle cx="488" cy="94" r="16" fill="rgba(184,255,108,0.15)" stroke="rgba(184,255,108,0.4)" stroke-width="1"/>
  <circle cx="488" cy="94" r="7" fill="#b8ff6c"/>
  <rect x="404" y="142" width="100" height="9" rx="3" fill="white" opacity="0.85"/>
  <rect x="404" y="156" width="68" height="7" rx="2" fill="#b8ff6c" opacity="0.8"/>
  <rect x="404" y="170" width="32" height="16" rx="8" fill="#FF5C1A"/>
  <!-- Row 2 -->
  <rect x="16" y="200" width="176" height="130" rx="12" fill="url(#p4)" stroke="rgba(255,92,26,0.2)" stroke-width="1"/>
  <rect x="16" y="200" width="176" height="72" rx="12" fill="rgba(255,92,26,0.07)"/>
  <rect x="16" y="260" width="176" height="12" fill="rgba(255,92,26,0.07)"/>
  <circle cx="104" cy="236" r="28" fill="rgba(255,92,26,0.12)" stroke="rgba(255,92,26,0.3)" stroke-width="1.5"/>
  <circle cx="104" cy="236" r="16" fill="rgba(255,92,26,0.18)" stroke="rgba(255,92,26,0.45)" stroke-width="1"/>
  <circle cx="104" cy="236" r="7" fill="#FF5C1A"/>
  <rect x="28" y="284" width="100" height="9" rx="3" fill="white" opacity="0.85"/>
  <rect x="28" y="298" width="68" height="7" rx="2" fill="#FF5C1A" opacity="0.8"/>
  <rect x="28" y="312" width="32" height="16" rx="8" fill="#FF5C1A"/>
  <rect x="204" y="200" width="176" height="130" rx="12" fill="url(#p5)" stroke="rgba(0,212,255,0.2)" stroke-width="1"/>
  <rect x="204" y="200" width="176" height="72" rx="12" fill="rgba(0,212,255,0.06)"/>
  <rect x="204" y="260" width="176" height="12" fill="rgba(0,212,255,0.06)"/>
  <circle cx="292" cy="236" r="28" fill="rgba(0,212,255,0.1)" stroke="rgba(0,212,255,0.28)" stroke-width="1.5"/>
  <circle cx="292" cy="236" r="16" fill="rgba(0,212,255,0.15)" stroke="rgba(0,212,255,0.4)" stroke-width="1"/>
  <circle cx="292" cy="236" r="7" fill="#00D4FF"/>
  <rect x="216" y="284" width="100" height="9" rx="3" fill="white" opacity="0.85"/>
  <rect x="216" y="298" width="68" height="7" rx="2" fill="#00D4FF" opacity="0.8"/>
  <rect x="216" y="312" width="32" height="16" rx="8" fill="#FF5C1A"/>
  <rect x="392" y="200" width="192" height="130" rx="12" fill="url(#p6)" stroke="rgba(124,108,255,0.2)" stroke-width="1"/>
  <rect x="392" y="200" width="192" height="72" rx="12" fill="rgba(124,108,255,0.06)"/>
  <rect x="392" y="260" width="192" height="12" fill="rgba(124,108,255,0.06)"/>
  <circle cx="488" cy="236" r="28" fill="rgba(124,108,255,0.1)" stroke="rgba(124,108,255,0.28)" stroke-width="1.5"/>
  <circle cx="488" cy="236" r="16" fill="rgba(124,108,255,0.15)" stroke="rgba(124,108,255,0.4)" stroke-width="1"/>
  <circle cx="488" cy="236" r="7" fill="#7c6cff"/>
  <rect x="404" y="284" width="100" height="9" rx="3" fill="white" opacity="0.85"/>
  <rect x="404" y="298" width="68" height="7" rx="2" fill="#7c6cff" opacity="0.8"/>
  <rect x="404" y="312" width="32" height="16" rx="8" fill="#FF5C1A"/>
</svg>
