<svg xmlns="http://www.w3.org/2000/svg" viewBox="0 0 600 340" fill="none">
  <defs>
    <linearGradient id="bg" x1="0" y1="0" x2="1" y2="1"><stop offset="0%" stop-color="#0a0f2c"/><stop offset="100%" stop-color="#050a18"/></linearGradient>
  </defs>
  <rect width="600" height="340" fill="url(#bg)"/>
  <!-- Product grid 2x3 -->
  <rect x="24" y="24" width="160" height="140" rx="12" fill="rgba(0,212,255,0.07)" stroke="rgba(0,212,255,0.18)"/>
  <circle cx="104" cy="80" r="32" fill="rgba(0,212,255,0.12)" stroke="rgba(0,212,255,0.25)"/>
  <rect x="40" y="126" width="80" height="8" rx="3" fill="rgba(255,255,255,0.2)"/>
  <rect x="40" y="140" width="56" height="6" rx="2" fill="rgba(0,212,255,0.5)"/>
  <rect x="200" y="24" width="160" height="140" rx="12" fill="rgba(255,92,26,0.07)" stroke="rgba(255,92,26,0.18)"/>
  <circle cx="280" cy="80" r="32" fill="rgba(255,92,26,0.12)" stroke="rgba(255,92,26,0.25)"/>
  <rect x="216" y="126" width="80" height="8" rx="3" fill="rgba(255,255,255,0.2)"/>
  <rect x="216" y="140" width="56" height="6" rx="2" fill="rgba(255,92,26,0.5)"/>
  <rect x="376" y="24" width="160" height="140" rx="12" fill="rgba(124,108,255,0.07)" stroke="rgba(124,108,255,0.18)"/>
  <circle cx="456" cy="80" r="32" fill="rgba(124,108,255,0.12)" stroke="rgba(124,108,255,0.25)"/>
  <rect x="392" y="126" width="80" height="8" rx="3" fill="rgba(255,255,255,0.2)"/>
  <rect x="392" y="140" width="56" height="6" rx="2" fill="rgba(124,108,255,0.5)"/>
  <!-- Row 2 -->
  <rect x="24" y="178" width="160" height="140" rx="12" fill="rgba(184,255,108,0.06)" stroke="rgba(184,255,108,0.16)"/>
  <circle cx="104" cy="234" r="32" fill="rgba(184,255,108,0.1)" stroke="rgba(184,255,108,0.22)"/>
  <rect x="40" y="280" width="80" height="8" rx="3" fill="rgba(255,255,255,0.2)"/>
  <rect x="40" y="294" width="56" height="6" rx="2" fill="rgba(184,255,108,0.45)"/>
  <rect x="200" y="178" width="160" height="140" rx="12" fill="rgba(0,212,255,0.06)" stroke="rgba(0,212,255,0.15)"/>
  <circle cx="280" cy="234" r="32" fill="rgba(0,212,255,0.1)" stroke="rgba(0,212,255,0.2)"/>
  <rect x="216" y="280" width="80" height="8" rx="3" fill="rgba(255,255,255,0.2)"/>
  <rect x="216" y="294" width="56" height="6" rx="2" fill="rgba(0,212,255,0.45)"/>
  <rect x="376" y="178" width="160" height="140" rx="12" fill="rgba(255,92,26,0.06)" stroke="rgba(255,92,26,0.15)"/>
  <circle cx="456" cy="234" r="32" fill="rgba(255,92,26,0.1)" stroke="rgba(255,92,26,0.2)"/>
  <rect x="392" y="280" width="80" height="8" rx="3" fill="rgba(255,255,255,0.2)"/>
  <rect x="392" y="294" width="56" height="6" rx="2" fill="rgba(255,92,26,0.45)"/>
  <!-- "NEW" badge on first card -->
  <rect x="28" y="28" width="36" height="16" rx="8" fill="#FF5C1A"/>
  <text x="34" y="40" font-family="monospace" font-size="7.5" fill="white" font-weight="bold">NEW</text>
</svg>
