<svg xmlns="http://www.w3.org/2000/svg" viewBox="0 0 600 340" fill="none">
  <defs>
    <linearGradient id="bg" x1="0" y1="0" x2="1" y2="1"><stop offset="0%" stop-color="#0a1020"/><stop offset="100%" stop-color="#06100a"/></linearGradient>
    <linearGradient id="master" x1="0" y1="0" x2="0" y2="1"><stop offset="0%" stop-color="#1a2818"/><stop offset="100%" stop-color="#0d1a0c"/></linearGradient>
    <linearGradient id="btn" x1="0" y1="0" x2="1" y2="0"><stop offset="0%" stop-color="#FF5C1A"/><stop offset="100%" stop-color="#ff7c3a"/></linearGradient>
  </defs>
  <rect width="600" height="340" fill="url(#bg)"/>
  <!-- Master template -->
  <rect x="16" y="16" width="172" height="308" rx="14" fill="url(#master)" stroke="rgba(255,92,26,0.35)" stroke-width="1.5"/>
  <rect x="28" y="28" width="148" height="14" rx="4" fill="rgba(255,92,26,0.2)"/>
  <rect x="28" y="28" width="70" height="14" rx="4" fill="rgba(255,92,26,0.4)"/>
  <rect x="36" y="32" width="54" height="6" rx="2" fill="#FF5C1A" opacity="0.8"/>
  <!-- Hero image in master -->
  <rect x="28" y="50" width="148" height="90" rx="10" fill="rgba(255,92,26,0.08)" stroke="rgba(255,92,26,0.25)" stroke-width="1"/>
  <circle cx="102" cy="95" r="30" fill="rgba(255,92,26,0.15)" stroke="rgba(255,92,26,0.35)" stroke-width="1.5"/>
  <circle cx="102" cy="95" r="18" fill="rgba(255,92,26,0.22)" stroke="rgba(255,92,26,0.5)" stroke-width="1"/>
  <circle cx="102" cy="95" r="8" fill="#FF5C1A"/>
  <!-- Master content -->
  <rect x="28" y="152" width="148" height="12" rx="4" fill="rgba(255,255,255,0.7)"/>
  <rect x="28" y="170" width="120" height="7" rx="2" fill="rgba(255,255,255,0.3)"/>
  <rect x="28" y="182" width="100" height="7" rx="2" fill="rgba(255,255,255,0.2)"/>
  <rect x="28" y="194" width="130" height="7" rx="2" fill="rgba(255,255,255,0.18)"/>
  <!-- Sizes -->
  <rect x="28" y="212" width="30" height="28" rx="6" fill="rgba(255,255,255,0.06)" stroke="rgba(255,255,255,0.12)" stroke-width="1"/>
  <rect x="32" y="222" width="22" height="7" rx="2" fill="rgba(255,255,255,0.3)"/>
  <rect x="64" y="212" width="30" height="28" rx="6" fill="rgba(255,92,26,0.2)" stroke="rgba(255,92,26,0.5)" stroke-width="1"/>
  <rect x="68" y="222" width="22" height="7" rx="2" fill="#FF5C1A" opacity="0.8"/>
  <rect x="100" y="212" width="30" height="28" rx="6" fill="rgba(255,255,255,0.06)" stroke="rgba(255,255,255,0.12)" stroke-width="1"/>
  <rect x="104" y="222" width="22" height="7" rx="2" fill="rgba(255,255,255,0.3)"/>
  <rect x="28" y="252" width="148" height="32" rx="16" fill="url(#btn)"/>
  <rect x="60" y="263" width="84" height="9" rx="3" fill="white" opacity="0.95"/>
  <!-- MASTER label -->
  <rect x="28" y="296" width="70" height="18" rx="9" fill="rgba(255,92,26,0.2)" stroke="rgba(255,92,26,0.45)" stroke-width="1"/>
  <rect x="34" y="302" width="58" height="6" rx="2" fill="#FF5C1A" opacity="0.75"/>
  <!-- Arrow -->
  <line x1="194" y1="170" x2="226" y2="170" stroke="rgba(255,255,255,0.25)" stroke-width="1.5" stroke-dasharray="4,3"/>
  <polygon points="222,164 232,170 222,176" fill="rgba(255,255,255,0.4)"/>
  <!-- Variant 1 - Square -->
  <rect x="234" y="60" width="140" height="140" rx="12" fill="rgba(0,212,255,0.08)" stroke="rgba(0,212,255,0.25)" stroke-width="1"/>
  <rect x="234" y="60" width="140" height="82" rx="12" fill="rgba(0,212,255,0.06)"/>
  <rect x="234" y="130" width="140" height="12" fill="rgba(0,212,255,0.06)"/>
  <circle cx="304" cy="101" r="28" fill="rgba(0,212,255,0.15)" stroke="rgba(0,212,255,0.35)" stroke-width="1.5"/>
  <circle cx="304" cy="101" r="16" fill="rgba(0,212,255,0.22)" stroke="rgba(0,212,255,0.5)"/>
  <circle cx="304" cy="101" r="7" fill="#00D4FF"/>
  <rect x="246" y="150" width="116" height="8" rx="3" fill="rgba(255,255,255,0.65)"/>
  <rect x="246" y="163" width="80" height="6" rx="2" fill="rgba(0,212,255,0.6)"/>
  <rect x="246" y="176" width="116" height="16" rx="8" fill="rgba(0,212,255,0.2)" stroke="rgba(0,212,255,0.4)" stroke-width="1"/>
  <rect x="266" y="181" width="76" height="6" rx="2" fill="#00D4FF" opacity="0.7"/>
  <!-- 1:1 label -->
  <rect x="238" y="190" width="80" height="16" rx="8" fill="rgba(0,212,255,0.15)" stroke="rgba(0,212,255,0.3)" stroke-width="1"/>
  <rect x="244" y="196" width="68" height="5" rx="2" fill="#00D4FF" opacity="0.6"/>
  <!-- Arrow 2 -->
  <line x1="194" y1="240" x2="226" y2="256" stroke="rgba(255,255,255,0.2)" stroke-width="1.5" stroke-dasharray="4,3"/>
  <polygon points="222,250 232,258 223,262" fill="rgba(255,255,255,0.35)"/>
  <!-- Variant 2 - Portrait/Story -->
  <rect x="234" y="218" width="90" height="114" rx="12" fill="rgba(124,108,255,0.08)" stroke="rgba(124,108,255,0.25)" stroke-width="1"/>
  <rect x="234" y="218" width="90" height="60" rx="12" fill="rgba(124,108,255,0.06)"/>
  <rect x="234" y="266" width="90" height="12" fill="rgba(124,108,255,0.06)"/>
  <circle cx="279" cy="248" r="20" fill="rgba(124,108,255,0.2)" stroke="rgba(124,108,255,0.4)" stroke-width="1.5"/>
  <circle cx="279" cy="248" r="10" fill="#7c6cff" opacity="0.7"/>
  <rect x="244" y="284" width="70" height="7" rx="3" fill="rgba(255,255,255,0.6)"/>
  <rect x="244" y="296" width="50" height="5" rx="2" fill="rgba(124,108,255,0.6)"/>
  <rect x="244" y="308" width="70" height="16" rx="8" fill="rgba(124,108,255,0.2)" stroke="rgba(124,108,255,0.4)" stroke-width="1"/>
  <!-- Template pack panel -->
  <rect x="388" y="16" width="196" height="308" rx="14" fill="rgba(255,255,255,0.03)" stroke="rgba(255,255,255,0.08)" stroke-width="1"/>
  <rect x="400" y="28" width="100" height="10" rx="3" fill="rgba(255,255,255,0.6)"/>
  <rect x="400" y="42" width="172" height="52" rx="8" fill="rgba(0,212,255,0.08)" stroke="rgba(0,212,255,0.2)" stroke-width="1"/>
  <rect x="414" y="54" width="80" height="8" rx="3" fill="rgba(255,255,255,0.7)"/>
  <rect x="414" y="66" width="130" height="5" rx="2" fill="rgba(255,255,255,0.3)"/>
  <rect x="414" y="75" width="100" height="5" rx="2" fill="rgba(255,255,255,0.2)"/>
  <rect x="400" y="102" width="172" height="52" rx="8" fill="rgba(255,92,26,0.08)" stroke="rgba(255,92,26,0.2)" stroke-width="1"/>
  <rect x="414" y="114" width="80" height="8" rx="3" fill="rgba(255,255,255,0.7)"/>
  <rect x="414" y="126" width="130" height="5" rx="2" fill="rgba(255,255,255,0.3)"/>
  <rect x="414" y="135" width="100" height="5" rx="2" fill="rgba(255,255,255,0.2)"/>
  <rect x="400" y="162" width="172" height="52" rx="8" fill="rgba(124,108,255,0.08)" stroke="rgba(124,108,255,0.2)" stroke-width="1"/>
  <rect x="414" y="174" width="80" height="8" rx="3" fill="rgba(255,255,255,0.7)"/>
  <rect x="414" y="186" width="130" height="5" rx="2" fill="rgba(255,255,255,0.3)"/>
  <rect x="414" y="195" width="100" height="5" rx="2" fill="rgba(255,255,255,0.2)"/>
  <rect x="400" y="222" width="172" height="52" rx="8" fill="rgba(184,255,108,0.06)" stroke="rgba(184,255,108,0.2)" stroke-width="1"/>
  <rect x="414" y="234" width="80" height="8" rx="3" fill="rgba(255,255,255,0.7)"/>
  <rect x="414" y="246" width="130" height="5" rx="2" fill="rgba(255,255,255,0.3)"/>
  <rect x="414" y="255" width="100" height="5" rx="2" fill="rgba(255,255,255,0.2)"/>
  <rect x="400" y="288" width="172" height="24" rx="12" fill="rgba(184,255,108,0.15)" stroke="rgba(184,255,108,0.35)" stroke-width="1"/>
  <rect x="430" y="297" width="112" height="7" rx="3" fill="#b8ff6c" opacity="0.8"/>
</svg>
