<svg xmlns="http://www.w3.org/2000/svg" viewBox="0 0 600 340" fill="none">
  <defs>
    <linearGradient id="bg" x1="0" y1="0" x2="1" y2="1"><stop offset="0%" stop-color="#081520"/><stop offset="100%" stop-color="#050e18"/></linearGradient>
    <linearGradient id="hero" x1="0" y1="0" x2="1" y2="1"><stop offset="0%" stop-color="#081e28"/><stop offset="100%" stop-color="#051018"/></linearGradient>
    <linearGradient id="btn" x1="0" y1="0" x2="1" y2="0"><stop offset="0%" stop-color="#00D4FF"/><stop offset="100%" stop-color="#00aaff"/></linearGradient>
    <linearGradient id="heartglow" x1="0" y1="0" x2="0" y2="1"><stop offset="0%" stop-color="#00D4FF" stop-opacity="0.2"/><stop offset="100%" stop-color="#00D4FF" stop-opacity="0"/></linearGradient>
  </defs>
  <rect width="600" height="340" fill="url(#bg)"/>
  <!-- Hero -->
  <rect x="0" y="0" width="600" height="118" fill="url(#hero)"/>
  <ellipse cx="300" cy="59" rx="220" ry="90" fill="url(#heartglow)"/>
  <!-- Heart icon -->
  <path d="M300 88 C300 88 268 70 268 52 C268 42 278 36 288 44 C293 48 300 53 300 53 C300 53 307 48 312 44 C322 36 332 42 332 52 C332 70 300 88 300 88Z" fill="rgba(0,212,255,0.25)" stroke="#00D4FF" stroke-width="2"/>
  <!-- Hero text -->
  <rect x="40" y="24" width="200" height="18" rx="5" fill="white" opacity="0.9"/>
  <rect x="40" y="50" width="280" height="10" rx="3" fill="rgba(255,255,255,0.45)"/>
  <rect x="40" y="65" width="240" height="10" rx="3" fill="rgba(255,255,255,0.35)"/>
  <rect x="40" y="86" width="110" height="24" rx="12" fill="url(#btn)"/>
  <rect x="160" y="86" width="100" height="24" rx="12" fill="rgba(255,255,255,0.07)" stroke="rgba(255,255,255,0.18)" stroke-width="1"/>
  <!-- Stats row -->
  <rect x="0" y="118" width="600" height="88" fill="rgba(255,255,255,0.02)"/>
  <rect x="20" y="134" width="126" height="56" rx="12" fill="rgba(255,255,255,0.04)" stroke="rgba(255,255,255,0.07)" stroke-width="1"/>
  <rect x="36" y="148" width="60" height="18" rx="4" fill="rgba(0,212,255,0.2)"/>
  <rect x="38" y="151" width="48" height="12" rx="3" fill="#00D4FF" opacity="0.7"/>
  <rect x="40" y="157" width="36" height="8" rx="2" fill="rgba(255,255,255,0.0)"/>
  <!-- Stat value -->
  <text x="40" y="162" font-family="serif" font-size="18" fill="#00D4FF" font-weight="bold" opacity="0.9">5K+</text>
  <rect x="36" y="170" width="90" height="6" rx="2" fill="rgba(255,255,255,0.35)"/>
  <rect x="36" y="180" width="72" height="5" rx="2" fill="rgba(255,255,255,0.2)"/>
  <rect x="162" y="134" width="126" height="56" rx="12" fill="rgba(255,255,255,0.04)" stroke="rgba(255,255,255,0.07)" stroke-width="1"/>
  <text x="178" y="162" font-family="serif" font-size="18" fill="#FF5C1A" font-weight="bold" opacity="0.9">92%</text>
  <rect x="178" y="170" width="90" height="6" rx="2" fill="rgba(255,255,255,0.35)"/>
  <rect x="178" y="180" width="72" height="5" rx="2" fill="rgba(255,255,255,0.2)"/>
  <rect x="304" y="134" width="126" height="56" rx="12" fill="rgba(255,255,255,0.04)" stroke="rgba(255,255,255,0.07)" stroke-width="1"/>
  <text x="320" y="162" font-family="serif" font-size="18" fill="#b8ff6c" font-weight="bold" opacity="0.9">3X</text>
  <rect x="320" y="170" width="90" height="6" rx="2" fill="rgba(255,255,255,0.35)"/>
  <rect x="320" y="180" width="72" height="5" rx="2" fill="rgba(255,255,255,0.2)"/>
  <rect x="446" y="134" width="136" height="56" rx="12" fill="rgba(255,255,255,0.04)" stroke="rgba(255,255,255,0.07)" stroke-width="1"/>
  <text x="462" y="162" font-family="serif" font-size="16" fill="#7c6cff" font-weight="bold" opacity="0.9">100%</text>
  <rect x="462" y="170" width="100" height="6" rx="2" fill="rgba(255,255,255,0.35)"/>
  <rect x="462" y="180" width="80" height="5" rx="2" fill="rgba(255,255,255,0.2)"/>
  <!-- Impact stories -->
  <rect x="20" y="218" width="276" height="108" rx="12" fill="rgba(255,255,255,0.03)" stroke="rgba(255,255,255,0.07)" stroke-width="1"/>
  <rect x="36" y="232" width="90" height="10" rx="3" fill="rgba(255,255,255,0.65)"/>
  <rect x="36" y="250" width="248" height="7" rx="2" fill="rgba(255,255,255,0.22)"/>
  <rect x="36" y="262" width="220" height="7" rx="2" fill="rgba(255,255,255,0.18)"/>
  <rect x="36" y="274" width="240" height="7" rx="2" fill="rgba(255,255,255,0.15)"/>
  <rect x="36" y="290" width="80" height="22" rx="11" fill="rgba(0,212,255,0.18)" stroke="rgba(0,212,255,0.35)" stroke-width="1"/>
  <rect x="44" y="298" width="64" height="6" rx="2" fill="#00D4FF" opacity="0.7"/>
  <!-- Donation CTA -->
  <rect x="308" y="218" width="272" height="108" rx="12" fill="rgba(0,212,255,0.07)" stroke="rgba(0,212,255,0.2)" stroke-width="1"/>
  <rect x="324" y="232" width="120" height="10" rx="3" fill="rgba(255,255,255,0.65)"/>
  <rect x="324" y="250" width="240" height="7" rx="2" fill="rgba(255,255,255,0.25)"/>
  <rect x="324" y="262" width="200" height="7" rx="2" fill="rgba(255,255,255,0.18)"/>
  <rect x="324" y="286" width="148" height="28" rx="14" fill="url(#btn)"/>
  <rect x="354" y="295" width="88" height="10" rx="3" fill="white" opacity="0.95"/>
  <rect x="482" y="286" width="84" height="28" rx="14" fill="rgba(255,255,255,0.06)" stroke="rgba(255,255,255,0.12)" stroke-width="1"/>
  <rect x="494" y="296" width="60" height="8" rx="2" fill="rgba(255,255,255,0.4)"/>
  <!-- Trust badge -->
  <rect x="20" y="316" width="140" height="18" rx="9" fill="rgba(0,212,255,0.12)" stroke="rgba(0,212,255,0.28)" stroke-width="1"/>
  <rect x="30" y="323" width="120" height="5" rx="2" fill="#00D4FF" opacity="0.6)"/>
</svg>
