<svg xmlns="http://www.w3.org/2000/svg" viewBox="0 0 600 340" fill="none">
  <defs>
    <linearGradient id="bg" x1="0" y1="0" x2="1" y2="1"><stop offset="0%" stop-color="#0a0f2c"/><stop offset="100%" stop-color="#050a18"/></linearGradient>
    <linearGradient id="heartglow" x1="0" y1="0" x2="1" y2="1"><stop offset="0%" stop-color="#00D4FF" stop-opacity="0.2"/><stop offset="100%" stop-color="#00D4FF" stop-opacity="0"/></linearGradient>
  </defs>
  <rect width="600" height="340" fill="url(#bg)"/>
  <circle cx="300" cy="170" r="160" fill="url(#heartglow)"/>
  <!-- Impact hero section -->
  <rect x="20" y="20" width="560" height="100" rx="12" fill="rgba(0,212,255,0.05)" stroke="rgba(0,212,255,0.15)"/>
  <rect x="40" y="38" width="180" height="16" rx="4" fill="rgba(255,255,255,0.25)"/>
  <rect x="40" y="62" width="280" height="8" rx="3" fill="rgba(255,255,255,0.1)"/>
  <rect x="40" y="76" width="240" height="8" rx="3" fill="rgba(255,255,255,0.08)"/>
  <rect x="40" y="98" width="80" height="18" rx="9" fill="#00D4FF" opacity="0.9"/>
  <rect x="130" y="98" width="90" height="18" rx="9" fill="rgba(255,255,255,0.07)" stroke="rgba(255,255,255,0.12)"/>
  <!-- Heart / trust symbol -->
  <circle cx="500" cy="70" r="38" fill="rgba(0,212,255,0.08)" stroke="rgba(0,212,255,0.2)"/>
  <path d="M500 86 C500 86 478 72 478 60 C478 52 486 46 494 52 C497 54 500 57 500 57 C500 57 503 54 506 52 C514 46 522 52 522 60 C522 72 500 86 500 86Z" fill="rgba(0,212,255,0.35)" stroke="rgba(0,212,255,0.6)" stroke-width="1.5"/>
  <!-- Impact stats row -->
  <rect x="20" y="134" width="128" height="80" rx="12" fill="rgba(255,255,255,0.03)" stroke="rgba(255,255,255,0.07)"/>
  <text x="40" y="162" font-family="serif" font-size="22" fill="rgba(0,212,255,0.85)" font-weight="bold">5K+</text>
  <rect x="40" y="170" width="88" height="6" rx="2" fill="rgba(255,255,255,0.15)"/>
  <rect x="40" y="181" width="70" height="5" rx="2" fill="rgba(255,255,255,0.08)"/>
  <rect x="40" y="196" width="50" height="10" rx="5" fill="rgba(0,212,255,0.15)"/>
  <rect x="162" y="134" width="128" height="80" rx="12" fill="rgba(255,255,255,0.03)" stroke="rgba(255,255,255,0.07)"/>
  <text x="182" y="162" font-family="serif" font-size="22" fill="rgba(255,92,26,0.85)" font-weight="bold">92%</text>
  <rect x="182" y="170" width="88" height="6" rx="2" fill="rgba(255,255,255,0.15)"/>
  <rect x="182" y="181" width="70" height="5" rx="2" fill="rgba(255,255,255,0.08)"/>
  <rect x="182" y="196" width="50" height="10" rx="5" fill="rgba(255,92,26,0.15)"/>
  <rect x="304" y="134" width="128" height="80" rx="12" fill="rgba(255,255,255,0.03)" stroke="rgba(255,255,255,0.07)"/>
  <text x="324" y="162" font-family="serif" font-size="22" fill="rgba(184,255,108,0.85)" font-weight="bold">3X</text>
  <rect x="324" y="170" width="88" height="6" rx="2" fill="rgba(255,255,255,0.15)"/>
  <rect x="324" y="181" width="70" height="5" rx="2" fill="rgba(255,255,255,0.08)"/>
  <rect x="324" y="196" width="50" height="10" rx="5" fill="rgba(184,255,108,0.15)"/>
  <rect x="446" y="134" width="134" height="80" rx="12" fill="rgba(255,255,255,0.03)" stroke="rgba(255,255,255,0.07)"/>
  <text x="464" y="162" font-family="serif" font-size="20" fill="rgba(124,108,255,0.85)" font-weight="bold">100%</text>
  <rect x="464" y="170" width="88" height="6" rx="2" fill="rgba(255,255,255,0.15)"/>
  <rect x="464" y="181" width="70" height="5" rx="2" fill="rgba(255,255,255,0.08)"/>
  <rect x="464" y="196" width="50" height="10" rx="5" fill="rgba(124,108,255,0.15)"/>
  <!-- Stories section -->
  <rect x="20" y="228" width="268" height="90" rx="12" fill="rgba(255,255,255,0.025)" stroke="rgba(255,255,255,0.06)"/>
  <rect x="36" y="244" width="80" height="8" rx="3" fill="rgba(255,255,255,0.2)"/>
  <rect x="36" y="260" width="236" height="6" rx="2" fill="rgba(255,255,255,0.08)"/>
  <rect x="36" y="271" width="200" height="6" rx="2" fill="rgba(255,255,255,0.06)"/>
  <rect x="36" y="282" width="220" height="6" rx="2" fill="rgba(255,255,255,0.05)"/>
  <rect x="36" y="296" width="70" height="14" rx="7" fill="rgba(0,212,255,0.2)" stroke="rgba(0,212,255,0.3)"/>
  <!-- Donation CTA -->
  <rect x="302" y="228" width="278" height="90" rx="12" fill="rgba(0,212,255,0.07)" stroke="rgba(0,212,255,0.2)"/>
  <rect x="318" y="244" width="100" height="8" rx="3" fill="rgba(255,255,255,0.2)"/>
  <rect x="318" y="260" width="246" height="6" rx="2" fill="rgba(255,255,255,0.1)"/>
  <rect x="318" y="271" width="200" height="6" rx="2" fill="rgba(255,255,255,0.08)"/>
  <rect x="318" y="290" width="130" height="22" rx="11" fill="#00D4FF" opacity="0.9"/>
  <rect x="460" y="290" width="100" height="22" rx="11" fill="rgba(255,255,255,0.06)" stroke="rgba(255,255,255,0.12)"/>
  <!-- Trust badge -->
  <rect x="20" y="306" width="120" height="22" rx="11" fill="rgba(0,212,255,0.12)" stroke="rgba(0,212,255,0.28)"/>
  <text x="34" y="321" font-family="monospace" font-size="7.5" fill="#00D4FF" letter-spacing="0.08em">TRUST-FIRST NGO</text>
</svg>
