<svg xmlns="http://www.w3.org/2000/svg" viewBox="0 0 600 340" fill="none">
  <defs>
    <linearGradient id="bg" x1="0" y1="0" x2="1" y2="1"><stop offset="0%" stop-color="#0a0f2c"/><stop offset="100%" stop-color="#050a18"/></linearGradient>
    <linearGradient id="hero" x1="0" y1="0" x2="1" y2="1"><stop offset="0%" stop-color="#00D4FF" stop-opacity="0.15"/><stop offset="100%" stop-color="#7c6cff" stop-opacity="0.08"/></linearGradient>
  </defs>
  <rect width="600" height="340" fill="url(#bg)"/>
  <!-- Browser window -->
  <rect x="20" y="20" width="560" height="300" rx="12" fill="rgba(255,255,255,0.03)" stroke="rgba(255,255,255,0.1)"/>
  <rect x="20" y="20" width="560" height="28" rx="12" fill="rgba(255,255,255,0.06)"/>
  <rect x="20" y="36" width="560" height="12" fill="rgba(255,255,255,0.06)"/>
  <circle cx="40" cy="34" r="5" fill="#FF5C1A" opacity="0.7"/>
  <circle cx="56" cy="34" r="5" fill="#FFD600" opacity="0.5"/>
  <circle cx="72" cy="34" r="5" fill="#00D4FF" opacity="0.5"/>
  <rect x="140" y="29" width="200" height="10" rx="5" fill="rgba(255,255,255,0.08)"/>
  <!-- Navbar inside browser -->
  <rect x="20" y="48" width="560" height="22" fill="rgba(255,255,255,0.04)"/>
  <rect x="36" y="55" width="36" height="8" rx="2" fill="rgba(255,255,255,0.2)"/>
  <rect x="140" y="56" width="28" height="6" rx="2" fill="rgba(255,255,255,0.1)"/>
  <rect x="178" y="56" width="28" height="6" rx="2" fill="rgba(255,255,255,0.1)"/>
  <rect x="216" y="56" width="28" height="6" rx="2" fill="rgba(255,255,255,0.1)"/>
  <rect x="510" y="53" width="52" height="12" rx="6" fill="#FF5C1A" opacity="0.9"/>
  <!-- Hero section -->
  <rect x="20" y="70" width="560" height="120" fill="url(#hero)"/>
  <rect x="48" y="88" width="180" height="18" rx="4" fill="rgba(255,255,255,0.25)"/>
  <rect x="48" y="112" width="240" height="10" rx="3" fill="rgba(255,255,255,0.12)"/>
  <rect x="48" y="127" width="200" height="10" rx="3" fill="rgba(255,255,255,0.09)"/>
  <rect x="48" y="148" width="80" height="22" rx="11" fill="#FF5C1A"/>
  <rect x="138" y="148" width="80" height="22" rx="11" fill="rgba(255,255,255,0.07)" stroke="rgba(255,255,255,0.15)"/>
  <!-- Hero visual -->
  <rect x="360" y="80" width="200" height="100" rx="10" fill="rgba(0,212,255,0.07)" stroke="rgba(0,212,255,0.15)"/>
  <circle cx="460" cy="130" r="36" fill="rgba(0,212,255,0.1)" stroke="rgba(0,212,255,0.2)"/>
  <circle cx="460" cy="130" r="20" fill="rgba(124,108,255,0.15)" stroke="rgba(124,108,255,0.25)"/>
  <!-- Services row -->
  <rect x="36" y="206" width="156" height="72" rx="8" fill="rgba(255,255,255,0.03)" stroke="rgba(255,255,255,0.08)"/>
  <rect x="48" y="218" width="60" height="8" rx="2" fill="rgba(255,255,255,0.2)"/>
  <rect x="48" y="232" width="120" height="5" rx="2" fill="rgba(255,255,255,0.08)"/>
  <rect x="48" y="242" width="100" height="5" rx="2" fill="rgba(255,255,255,0.06)"/>
  <rect x="48" y="260" width="40" height="8" rx="4" fill="rgba(0,212,255,0.2)"/>
  <rect x="208" y="206" width="156" height="72" rx="8" fill="rgba(255,255,255,0.03)" stroke="rgba(255,255,255,0.08)"/>
  <rect x="220" y="218" width="60" height="8" rx="2" fill="rgba(255,255,255,0.2)"/>
  <rect x="220" y="232" width="120" height="5" rx="2" fill="rgba(255,255,255,0.08)"/>
  <rect x="220" y="242" width="100" height="5" rx="2" fill="rgba(255,255,255,0.06)"/>
  <rect x="220" y="260" width="40" height="8" rx="4" fill="rgba(255,92,26,0.2)"/>
  <rect x="380" y="206" width="156" height="72" rx="8" fill="rgba(255,255,255,0.03)" stroke="rgba(255,255,255,0.08)"/>
  <rect x="392" y="218" width="60" height="8" rx="2" fill="rgba(255,255,255,0.2)"/>
  <rect x="392" y="232" width="120" height="5" rx="2" fill="rgba(255,255,255,0.08)"/>
  <rect x="392" y="242" width="100" height="5" rx="2" fill="rgba(255,255,255,0.06)"/>
  <rect x="392" y="260" width="40" height="8" rx="4" fill="rgba(124,108,255,0.2)"/>
  <!-- Footer line -->
  <line x1="36" y1="295" x2="564" y2="295" stroke="rgba(255,255,255,0.06)"/>
  <rect x="36" y="302" width="80" height="5" rx="2" fill="rgba(255,255,255,0.08)"/>
  <rect x="440" y="302" width="50" height="5" rx="2" fill="rgba(255,255,255,0.06)"/>
  <rect x="500" y="302" width="60" height="5" rx="2" fill="rgba(255,255,255,0.06)"/>
</svg>
