<svg xmlns="http://www.w3.org/2000/svg" viewBox="0 0 600 340" fill="none">
  <defs>
    <linearGradient id="bg" x1="0" y1="0" x2="1" y2="1"><stop offset="0%" stop-color="#0a1020"/><stop offset="100%" stop-color="#060d1a"/></linearGradient>
    <linearGradient id="hero" x1="0" y1="0" x2="1" y2="1"><stop offset="0%" stop-color="#0d1f3a"/><stop offset="100%" stop-color="#0a1628"/></linearGradient>
    <linearGradient id="accent" x1="0" y1="0" x2="1" y2="1"><stop offset="0%" stop-color="#00D4FF" stop-opacity="0.3"/><stop offset="100%" stop-color="#7c6cff" stop-opacity="0.15"/></linearGradient>
    <linearGradient id="btn" x1="0" y1="0" x2="1" y2="0"><stop offset="0%" stop-color="#FF5C1A"/><stop offset="100%" stop-color="#ff7c3a"/></linearGradient>
  </defs>
  <rect width="600" height="340" fill="url(#bg)"/>
  <!-- Navbar -->
  <rect x="0" y="0" width="600" height="44" fill="rgba(10,16,32,0.95)" stroke="rgba(255,255,255,0.06)" stroke-width="1"/>
  <circle cx="24" cy="22" r="10" fill="rgba(255,92,26,0.2)" stroke="#FF5C1A" stroke-width="1.5"/>
  <circle cx="24" cy="22" r="4" fill="#FF5C1A"/>
  <rect x="40" y="16" width="80" height="11" rx="3" fill="white" opacity="0.85"/>
  <rect x="200" y="18" width="36" height="7" rx="2" fill="rgba(255,255,255,0.4)"/>
  <rect x="248" y="18" width="36" height="7" rx="2" fill="rgba(255,255,255,0.4)"/>
  <rect x="296" y="18" width="48" height="7" rx="2" fill="rgba(255,255,255,0.4)"/>
  <rect x="356" y="18" width="32" height="7" rx="2" fill="rgba(255,255,255,0.4)"/>
  <rect x="500" y="14" width="84" height="20" rx="10" fill="url(#btn)"/>
  <rect x="514" y="19" width="56" height="9" rx="2" fill="white" opacity="0.9"/>
  <!-- Hero section -->
  <rect x="0" y="44" width="600" height="160" fill="url(#hero)"/>
  <rect x="0" y="44" width="600" height="160" fill="url(#accent)"/>
  <!-- Glow orb -->
  <circle cx="480" cy="124" r="80" fill="rgba(0,212,255,0.06)"/>
  <circle cx="480" cy="124" r="50" fill="rgba(124,108,255,0.08)"/>
  <!-- Hero text -->
  <rect x="40" y="70" width="260" height="22" rx="5" fill="white" opacity="0.92"/>
  <rect x="40" y="100" width="320" height="22" rx="5" fill="white" opacity="0.85"/>
  <rect x="40" y="130" width="240" height="13" rx="3" fill="rgba(255,255,255,0.45)"/>
  <rect x="40" y="148" width="200" height="13" rx="3" fill="rgba(255,255,255,0.35)"/>
  <rect x="40" y="170" width="100" height="24" rx="12" fill="url(#btn)"/>
  <rect x="150" y="170" width="90" height="24" rx="12" fill="rgba(255,255,255,0.08)" stroke="rgba(255,255,255,0.2)" stroke-width="1"/>
  <!-- Hero visual right -->
  <rect x="360" y="58" width="218" height="130" rx="14" fill="rgba(0,212,255,0.06)" stroke="rgba(0,212,255,0.2)" stroke-width="1"/>
  <rect x="374" y="70" width="190" height="80" rx="8" fill="rgba(255,255,255,0.04)"/>
  <!-- Mock chart in hero image -->
  <rect x="386" y="82" width="24" height="56" rx="3" fill="rgba(0,212,255,0.3)"/>
  <rect x="418" y="96" width="24" height="42" rx="3" fill="rgba(124,108,255,0.4)"/>
  <rect x="450" y="74" width="24" height="64" rx="3" fill="rgba(0,212,255,0.5)"/>
  <rect x="482" y="88" width="24" height="50" rx="3" fill="rgba(255,92,26,0.4)"/>
  <rect x="514" y="80" width="24" height="58" rx="3" fill="rgba(0,212,255,0.45)"/>
  <polyline points="398,107 430,121 462,89 494,103 526,95" stroke="#b8ff6c" stroke-width="2" fill="none"/>
  <rect x="374" y="158" width="80" height="8" rx="3" fill="rgba(255,255,255,0.5)"/>
  <rect x="374" y="170" width="120" height="6" rx="2" fill="rgba(255,255,255,0.25)"/>
  <!-- Services section -->
  <rect x="0" y="204" width="600" height="136" fill="rgba(255,255,255,0.015)"/>
  <rect x="20" y="216" width="100" height="10" rx="3" fill="rgba(255,255,255,0.6)"/>
  <rect x="20" y="232" width="170" height="7" rx="2" fill="rgba(255,255,255,0.2)"/>
  <!-- Service cards -->
  <rect x="20" y="252" width="168" height="72" rx="10" fill="rgba(0,212,255,0.06)" stroke="rgba(0,212,255,0.15)" stroke-width="1"/>
  <rect x="32" y="264" width="32" height="32" rx="8" fill="rgba(0,212,255,0.2)"/>
  <rect x="36" y="272" width="24" height="16" rx="4" fill="#00D4FF" opacity="0.6"/>
  <rect x="72" y="264" width="80" height="8" rx="3" fill="rgba(255,255,255,0.7)"/>
  <rect x="72" y="276" width="100" height="5" rx="2" fill="rgba(255,255,255,0.3)"/>
  <rect x="72" y="285" width="90" height="5" rx="2" fill="rgba(255,255,255,0.2)"/>
  <rect x="32" y="302" width="60" height="16" rx="8" fill="rgba(0,212,255,0.2)" stroke="rgba(0,212,255,0.4)" stroke-width="1"/>
  <rect x="200" y="252" width="168" height="72" rx="10" fill="rgba(255,92,26,0.06)" stroke="rgba(255,92,26,0.15)" stroke-width="1"/>
  <rect x="212" y="264" width="32" height="32" rx="8" fill="rgba(255,92,26,0.2)"/>
  <rect x="216" y="272" width="24" height="16" rx="4" fill="#FF5C1A" opacity="0.6"/>
  <rect x="252" y="264" width="80" height="8" rx="3" fill="rgba(255,255,255,0.7)"/>
  <rect x="252" y="276" width="100" height="5" rx="2" fill="rgba(255,255,255,0.3)"/>
  <rect x="252" y="285" width="90" height="5" rx="2" fill="rgba(255,255,255,0.2)"/>
  <rect x="212" y="302" width="60" height="16" rx="8" fill="rgba(255,92,26,0.2)" stroke="rgba(255,92,26,0.4)" stroke-width="1"/>
  <rect x="380" y="252" width="168" height="72" rx="10" fill="rgba(124,108,255,0.06)" stroke="rgba(124,108,255,0.15)" stroke-width="1"/>
  <rect x="392" y="264" width="32" height="32" rx="8" fill="rgba(124,108,255,0.2)"/>
  <rect x="396" y="272" width="24" height="16" rx="4" fill="#7c6cff" opacity="0.6"/>
  <rect x="432" y="264" width="80" height="8" rx="3" fill="rgba(255,255,255,0.7)"/>
  <rect x="432" y="276" width="100" height="5" rx="2" fill="rgba(255,255,255,0.3)"/>
  <rect x="432" y="285" width="90" height="5" rx="2" fill="rgba(255,255,255,0.2)"/>
  <rect x="392" y="302" width="60" height="16" rx="8" fill="rgba(124,108,255,0.2)" stroke="rgba(124,108,255,0.4)" stroke-width="1"/>
</svg>
