<svg xmlns="http://www.w3.org/2000/svg" viewBox="0 0 600 340" fill="none">
  <defs>
    <linearGradient id="bg" x1="0" y1="0" x2="1" y2="1"><stop offset="0%" stop-color="#0a0f2c"/><stop offset="100%" stop-color="#050a18"/></linearGradient>
  </defs>
  <rect width="600" height="340" fill="url(#bg)"/>
  <!-- Phone mockup left -->
  <rect x="30" y="20" width="160" height="300" rx="24" fill="rgba(255,255,255,0.04)" stroke="rgba(255,255,255,0.1)" stroke-width="1.5"/>
  <rect x="70" y="28" width="80" height="6" rx="3" fill="rgba(255,255,255,0.15)"/>
  <!-- Product image area -->
  <rect x="42" y="46" width="136" height="110" rx="8" fill="rgba(0,212,255,0.08)" stroke="rgba(0,212,255,0.15)"/>
  <circle cx="110" cy="101" r="36" fill="rgba(0,212,255,0.12)" stroke="rgba(0,212,255,0.2)"/>
  <!-- Product info -->
  <rect x="42" y="166" width="90" height="10" rx="3" fill="rgba(255,255,255,0.25)"/>
  <rect x="42" y="181" width="60" height="8" rx="2" fill="rgba(0,212,255,0.5)"/>
  <rect x="42" y="196" width="136" height="5" rx="2" fill="rgba(255,255,255,0.08)"/>
  <rect x="42" y="206" width="120" height="5" rx="2" fill="rgba(255,255,255,0.06)"/>
  <!-- Size picker -->
  <rect x="42" y="222" width="24" height="24" rx="6" fill="rgba(255,255,255,0.06)" stroke="rgba(255,255,255,0.1)"/>
  <rect x="72" y="222" width="24" height="24" rx="6" fill="rgba(255,255,255,0.06)" stroke="rgba(255,255,255,0.1)"/>
  <rect x="102" y="222" width="24" height="24" rx="6" fill="rgba(0,212,255,0.2)" stroke="rgba(0,212,255,0.4)"/>
  <rect x="132" y="222" width="24" height="24" rx="6" fill="rgba(255,255,255,0.06)" stroke="rgba(255,255,255,0.1)"/>
  <!-- Add to cart -->
  <rect x="42" y="258" width="136" height="34" rx="17" fill="#FF5C1A"/>
  <rect x="42" y="302" width="136" height="10" rx="4" fill="rgba(255,255,255,0.06)"/>
  <!-- Desktop PDP right -->
  <rect x="210" y="20" width="360" height="300" rx="12" fill="rgba(255,255,255,0.025)" stroke="rgba(255,255,255,0.07)"/>
  <!-- Desktop nav -->
  <rect x="210" y="20" width="360" height="20" rx="12" fill="rgba(255,255,255,0.05)"/>
  <rect x="210" y="30" width="360" height="10" fill="rgba(255,255,255,0.05)"/>
  <rect x="224" y="26" width="30" height="6" rx="2" fill="rgba(255,255,255,0.2)"/>
  <rect x="500" y="25" width="56" height="10" rx="5" fill="#FF5C1A" opacity="0.9"/>
  <!-- Product images -->
  <rect x="222" y="48" width="130" height="100" rx="8" fill="rgba(0,212,255,0.07)" stroke="rgba(0,212,255,0.15)"/>
  <circle cx="287" cy="98" r="34" fill="rgba(0,212,255,0.1)" stroke="rgba(0,212,255,0.18)"/>
  <!-- Thumbnail row -->
  <rect x="222" y="154" width="38" height="30" rx="4" fill="rgba(0,212,255,0.12)" stroke="rgba(0,212,255,0.25)"/>
  <rect x="266" y="154" width="38" height="30" rx="4" fill="rgba(255,255,255,0.04)" stroke="rgba(255,255,255,0.08)"/>
  <rect x="310" y="154" width="38" height="30" rx="4" fill="rgba(255,255,255,0.04)" stroke="rgba(255,255,255,0.08)"/>
  <!-- Product details right col -->
  <rect x="368" y="48" width="186" height="16" rx="4" fill="rgba(255,255,255,0.22)"/>
  <rect x="368" y="70" width="90" height="12" rx="3" fill="rgba(0,212,255,0.4)"/>
  <rect x="368" y="90" width="186" height="5" rx="2" fill="rgba(255,255,255,0.09)"/>
  <rect x="368" y="100" width="160" height="5" rx="2" fill="rgba(255,255,255,0.07)"/>
  <rect x="368" y="110" width="170" height="5" rx="2" fill="rgba(255,255,255,0.06)"/>
  <!-- Size grid -->
  <rect x="368" y="130" width="32" height="22" rx="5" fill="rgba(255,255,255,0.05)" stroke="rgba(255,255,255,0.1)"/>
  <rect x="406" y="130" width="32" height="22" rx="5" fill="rgba(255,255,255,0.05)" stroke="rgba(255,255,255,0.1)"/>
  <rect x="444" y="130" width="32" height="22" rx="5" fill="#FF5C1A" opacity="0.8"/>
  <rect x="482" y="130" width="32" height="22" rx="5" fill="rgba(255,255,255,0.05)" stroke="rgba(255,255,255,0.1)"/>
  <rect x="520" y="130" width="32" height="22" rx="5" fill="rgba(255,255,255,0.05)" stroke="rgba(255,255,255,0.1)"/>
  <!-- Add to cart desktop -->
  <rect x="368" y="162" width="186" height="36" rx="18" fill="#FF5C1A"/>
  <!-- Reviews -->
  <rect x="222" y="198" width="332" height="50" rx="8" fill="rgba(255,255,255,0.02)" stroke="rgba(255,255,255,0.06)"/>
  <rect x="234" y="210" width="60" height="7" rx="2" fill="rgba(255,255,255,0.2)"/>
  <rect x="234" y="222" width="240" height="5" rx="2" fill="rgba(255,255,255,0.08)"/>
  <rect x="234" y="232" width="180" height="5" rx="2" fill="rgba(255,255,255,0.06)"/>
  <!-- Conversion badge -->
  <rect x="380" y="282" width="160" height="24" rx="12" fill="rgba(184,255,108,0.12)" stroke="rgba(184,255,108,0.28)"/>
  <text x="400" y="298" font-family="monospace" font-size="8" fill="#b8ff6c" letter-spacing="0.08em">CONVERSION-FIRST UX</text>
</svg>
