<svg xmlns="http://www.w3.org/2000/svg" viewBox="0 0 600 340" fill="none">
  <defs>
    <linearGradient id="bg" x1="0" y1="0" x2="1" y2="1"><stop offset="0%" stop-color="#0a1020"/><stop offset="100%" stop-color="#070d1a"/></linearGradient>
    <linearGradient id="phone" x1="0" y1="0" x2="1" y2="1"><stop offset="0%" stop-color="#131b2e"/><stop offset="100%" stop-color="#0d1525"/></linearGradient>
    <linearGradient id="product" x1="0" y1="0" x2="1" y2="1"><stop offset="0%" stop-color="#0d1f30"/><stop offset="100%" stop-color="#091525"/></linearGradient>
    <linearGradient id="btn" x1="0" y1="0" x2="1" y2="0"><stop offset="0%" stop-color="#FF5C1A"/><stop offset="100%" stop-color="#ff7c3a"/></linearGradient>
  </defs>
  <rect width="600" height="340" fill="url(#bg)"/>
  <!-- Phone (left) -->
  <rect x="18" y="14" width="168" height="312" rx="24" fill="url(#phone)" stroke="rgba(255,255,255,0.12)" stroke-width="1.5"/>
  <rect x="64" y="22" width="76" height="8" rx="4" fill="rgba(255,255,255,0.18)"/>
  <!-- Product image on phone -->
  <rect x="30" y="42" width="144" height="120" rx="12" fill="url(#product)"/>
  <circle cx="102" cy="102" r="38" fill="rgba(0,212,255,0.1)" stroke="rgba(0,212,255,0.2)" stroke-width="1"/>
  <circle cx="102" cy="102" r="24" fill="rgba(0,212,255,0.15)" stroke="rgba(0,212,255,0.3)" stroke-width="1.5"/>
  <circle cx="102" cy="102" r="12" fill="rgba(0,212,255,0.3)"/>
  <circle cx="102" cy="102" r="5" fill="#00D4FF"/>
  <!-- Product info phone -->
  <rect x="30" y="172" width="100" height="12" rx="4" fill="white" opacity="0.85"/>
  <rect x="30" y="190" width="64" height="10" rx="3" fill="#00D4FF" opacity="0.85"/>
  <rect x="30" y="206" width="144" height="6" rx="2" fill="rgba(255,255,255,0.25)"/>
  <rect x="30" y="216" width="120" height="6" rx="2" fill="rgba(255,255,255,0.18)"/>
  <!-- Size pills phone -->
  <rect x="30" y="232" width="28" height="26" rx="6" fill="rgba(255,255,255,0.06)" stroke="rgba(255,255,255,0.12)" stroke-width="1"/>
  <rect x="35" y="241" width="18" height="7" rx="2" fill="rgba(255,255,255,0.35)"/>
  <rect x="64" y="232" width="28" height="26" rx="6" fill="rgba(255,255,255,0.06)" stroke="rgba(255,255,255,0.12)" stroke-width="1"/>
  <rect x="69" y="241" width="18" height="7" rx="2" fill="rgba(255,255,255,0.35)"/>
  <rect x="98" y="232" width="28" height="26" rx="6" fill="#FF5C1A" stroke="rgba(255,92,26,0.6)" stroke-width="1"/>
  <rect x="103" y="241" width="18" height="7" rx="2" fill="white" opacity="0.9"/>
  <rect x="132" y="232" width="28" height="26" rx="6" fill="rgba(255,255,255,0.06)" stroke="rgba(255,255,255,0.12)" stroke-width="1"/>
  <rect x="137" y="241" width="18" height="7" rx="2" fill="rgba(255,255,255,0.35)"/>
  <!-- Add to cart phone -->
  <rect x="30" y="270" width="144" height="36" rx="18" fill="url(#btn)"/>
  <rect x="62" y="282" width="80" height="12" rx="4" fill="white" opacity="0.95"/>
  <!-- Trust signal -->
  <rect x="30" y="316" width="144" height="8" rx="3" fill="rgba(255,255,255,0.08)"/>
  <!-- Desktop PDP right -->
  <rect x="202" y="14" width="380" height="312" rx="14" fill="rgba(255,255,255,0.025)" stroke="rgba(255,255,255,0.07)" stroke-width="1"/>
  <!-- Desktop nav -->
  <rect x="202" y="14" width="380" height="32" rx="14" fill="rgba(255,255,255,0.05)"/>
  <rect x="202" y="34" width="380" height="12" fill="rgba(255,255,255,0.05)"/>
  <rect x="218" y="22" width="44" height="7" rx="2" fill="rgba(255,255,255,0.7)"/>
  <rect x="380" y="22" width="32" height="7" rx="2" fill="rgba(255,255,255,0.25)"/>
  <rect x="422" y="22" width="32" height="7" rx="2" fill="rgba(255,255,255,0.25)"/>
  <rect x="512" y="18" width="56" height="16" rx="8" fill="url(#btn)"/>
  <rect x="518" y="23" width="44" height="6" rx="2" fill="white" opacity="0.9"/>
  <!-- Product images desktop -->
  <rect x="218" y="56" width="148" height="112" rx="10" fill="url(#product)" stroke="rgba(0,212,255,0.15)" stroke-width="1"/>
  <circle cx="292" cy="112" r="38" fill="rgba(0,212,255,0.1)" stroke="rgba(0,212,255,0.2)" stroke-width="1"/>
  <circle cx="292" cy="112" r="24" fill="rgba(0,212,255,0.16)" stroke="rgba(0,212,255,0.32)" stroke-width="1.5"/>
  <circle cx="292" cy="112" r="12" fill="rgba(0,212,255,0.3)"/>
  <circle cx="292" cy="112" r="5" fill="#00D4FF"/>
  <!-- Thumbnails -->
  <rect x="218" y="174" width="42" height="32" rx="6" fill="rgba(0,212,255,0.12)" stroke="rgba(0,212,255,0.3)" stroke-width="1.5"/>
  <rect x="266" y="174" width="42" height="32" rx="6" fill="rgba(255,255,255,0.05)" stroke="rgba(255,255,255,0.1)" stroke-width="1"/>
  <rect x="314" y="174" width="42" height="32" rx="6" fill="rgba(255,255,255,0.05)" stroke="rgba(255,255,255,0.1)" stroke-width="1"/>
  <!-- Right column product info -->
  <rect x="382" y="56" width="186" height="18" rx="5" fill="white" opacity="0.82"/>
  <rect x="382" y="82" width="100" height="14" rx="4" fill="#00D4FF" opacity="0.75"/>
  <rect x="382" y="102" width="186" height="6" rx="2" fill="rgba(255,255,255,0.28)"/>
  <rect x="382" y="113" width="160" height="6" rx="2" fill="rgba(255,255,255,0.2)"/>
  <rect x="382" y="124" width="170" height="6" rx="2" fill="rgba(255,255,255,0.18)"/>
  <!-- Size grid desktop -->
  <rect x="382" y="144" width="36" height="26" rx="6" fill="rgba(255,255,255,0.06)" stroke="rgba(255,255,255,0.1)" stroke-width="1"/>
  <rect x="424" y="144" width="36" height="26" rx="6" fill="rgba(255,255,255,0.06)" stroke="rgba(255,255,255,0.1)" stroke-width="1"/>
  <rect x="466" y="144" width="36" height="26" rx="6" fill="#FF5C1A"/>
  <rect x="508" y="144" width="36" height="26" rx="6" fill="rgba(255,255,255,0.06)" stroke="rgba(255,255,255,0.1)" stroke-width="1"/>
  <!-- ATC desktop -->
  <rect x="382" y="180" width="186" height="36" rx="18" fill="url(#btn)"/>
  <rect x="434" y="192" width="82" height="12" rx="4" fill="white" opacity="0.95"/>
  <!-- Reviews -->
  <rect x="218" y="218" width="350" height="56" rx="10" fill="rgba(255,255,255,0.025)" stroke="rgba(255,255,255,0.06)" stroke-width="1"/>
  <!-- Stars -->
  <rect x="230" y="230" width="10" height="10" rx="2" fill="#FFD600" opacity="0.8"/>
  <rect x="244" y="230" width="10" height="10" rx="2" fill="#FFD600" opacity="0.8"/>
  <rect x="258" y="230" width="10" height="10" rx="2" fill="#FFD600" opacity="0.8"/>
  <rect x="272" y="230" width="10" height="10" rx="2" fill="#FFD600" opacity="0.8"/>
  <rect x="286" y="230" width="10" height="10" rx="2" fill="#FFD600" opacity="0.4"/>
  <rect x="302" y="230" width="60" height="6" rx="2" fill="rgba(255,255,255,0.3)"/>
  <rect x="230" y="248" width="300" height="5" rx="2" fill="rgba(255,255,255,0.15)"/>
  <rect x="230" y="257" width="240" height="5" rx="2" fill="rgba(255,255,255,0.1)"/>
  <!-- Conversion badge -->
  <rect x="382" y="286" width="186" height="32" rx="16" fill="rgba(184,255,108,0.12)" stroke="rgba(184,255,108,0.3)" stroke-width="1"/>
  <rect x="410" y="299" width="130" height="6" rx="2" fill="#b8ff6c" opacity="0.75"/>
</svg>
